<?xml version="1.0" encoding="UTF-8"?><svg id="Layer_1" xmlns="http://www.w3.org/2000/svg" xmlns:xlink="http://www.w3.org/1999/xlink" viewBox="0 0 96.42 24.6"><defs><style>.cls-1{fill:none;}.cls-2{clip-path:url(#clippath-1);}.cls-3{fill:#fff;}.cls-4{clip-path:url(#clippath);}</style><clipPath id="clippath"><rect class="cls-1" width="96.42" height="24.6"/></clipPath><clipPath id="clippath-1"><rect class="cls-1" width="96.42" height="24.6"/></clipPath></defs><g class="cls-4"><path class="cls-3" d="M43.84,11.9c3.05-1.04,3.6-3.67,3.59-5.8C47.42,2.83,45.18,0,38.53,0h-12.41s0,24.55,0,24.55h12.38c6.69,0,9.15-3.53,9.15-7.06,0-4.28-3.81-5.59-3.81-5.59M32,5.34h8.39c.94.18,1.63,1,1.63,1.97s-.74,1.92-1.71,2.05h-8.3s0-4.02,0-4.02ZM39.96,18.83h-7.96v-4.11h8.17c1.01.12,1.78.99,1.78,2.02,0,1.12-.91,2.08-1.99,2.09"/></g><polygon class="cls-3" points="75.44 0 75.44 24.6 96.42 24.6 96.42 18.99 81.29 18.99 81.29 14.71 94.93 14.71 94.93 9.32 81.29 9.32 81.27 5.36 96.41 5.36 96.42 0 75.44 0"/><g class="cls-2"><path class="cls-3" d="M63.24.04h-12.68v24.56h5.82v-9.94s6.41,0,6.42,0c1.84.03,3.26,1.57,3.26,3.48v6.44h5.7s-.01-7.93-.01-7.93c0-3.67-3.46-4.76-3.46-4.76,0,0,3.53-1.08,3.53-5.43C71.83,1.15,67.38.04,63.24.04M66.42,7.66c-.1.81-.89,1.68-1.87,1.68h-8.19s0-3.93,0-3.93h8.19c.98,0,1.75.74,1.87,1.71v.54Z"/><path class="cls-3" d="M22.34,18.66c-.08,0-7.96.16-10.68-.11-4.38-.44-5.93-3.77-5.93-6.49,0-3.39,2.25-5.89,5.74-6.35,1.66-.22,10.73-.12,10.83-.12h.22V0h-.2l-10.27.02c-1.14.07-3.04.19-4.98,1-1.86.88-3.49,2.22-4.7,3.9C.82,7.06,0,9.59,0,12.25c0,.84.07,1.66.19,2.46.74,3.72,3.12,6.81,6.53,8.46,1.15.52,2.93,1.14,6.51,1.35,0,0,1.93.04,1.93.04,0,0,7.16,0,7.16,0h.18v-5.91h-.17Z"/></g></svg>