<svg id="Colliers_Logo" data-name="Colliers Logo" xmlns="http://www.w3.org/2000/svg" xmlns:xlink="http://www.w3.org/1999/xlink" width="98.881" height="54.964" viewBox="0 0 98.881 54.964">
  <defs>
    <clipPath id="clip-path">
      <rect id="Rectangle_1634" data-name="Rectangle 1634" width="98.881" height="54.964" fill="#fff"/>
    </clipPath>
  </defs>
  <g id="Group_23843" data-name="Group 23843" clip-path="url(#clip-path)">
    <path id="Path_1262" data-name="Path 1262" d="M94.357,0H4.524A4.524,4.524,0,0,0,0,4.514V50.468a4.523,4.523,0,0,0,4.269,4.5H94.631a4.523,4.523,0,0,0,4.25-4.511V4.514A4.524,4.524,0,0,0,94.357,0M4.524.6H94.357a3.919,3.919,0,0,1,3.918,3.91V41.658H.606V4.514A3.919,3.919,0,0,1,4.524.6M.606,46.545h97.67v3.606H.606Zm0-4.284h97.67v3.68H.606Zm94.007,12.1H4.287A3.915,3.915,0,0,1,.62,50.755H98.261a3.91,3.91,0,0,1-3.649,3.606" transform="translate(0)" fill="#fff"/>
    <path id="Path_1263" data-name="Path 1263" d="M114.2,77.49c0-2.777-1.469-4.395-2.636-4.395a1.986,1.986,0,0,0-1.592.689,5.163,5.163,0,0,0-1.089,3.78,5.851,5.851,0,0,0,.787,3.506,2.122,2.122,0,0,0,2,1.089c1.671,0,2.533-2.1,2.533-4.67m1.342-3.911a5.449,5.449,0,0,1,1.748,3.986A5.785,5.785,0,0,1,115.72,81.4a5.621,5.621,0,0,1-4.251,1.817,4.961,4.961,0,0,1-4.1-1.817A5.294,5.294,0,0,1,106,77.49a5.634,5.634,0,0,1,2.126-4.187,5.485,5.485,0,0,1,3.593-1.214,5.387,5.387,0,0,1,3.827,1.49" transform="translate(-77.465 -52.749)" fill="#fff"/>
    <path id="Path_1264" data-name="Path 1264" d="M230.336,75.625c.53,0,.837-.151.837-.354,0-.756-.254-2.245-1.569-2.245-1.243,0-2,.909-2.331,2.6ZM227.2,77.316c0,2.574,1.848,4.087,3.29,4.087a3.45,3.45,0,0,0,3.064-1.464c.1-.177.2-.177.307-.126l.375.225c.127.075.178.178,0,.5a5.013,5.013,0,0,1-4.606,2.676,4.409,4.409,0,0,1-3.646-1.36,5.713,5.713,0,0,1-1.42-4.165,5.228,5.228,0,0,1,1.244-3.737c1.061-1.36,2.2-1.868,4.405-1.868,2.886,0,3.824,3,3.824,4.042,0,.377-.255.4-.713.4H227.2Z" transform="translate(-164.113 -52.749)" fill="#fff"/>
    <path id="Path_1265" data-name="Path 1265" d="M266.118,76.021c0-1.162-.2-1.564-.961-1.968L264.7,73.8c-.149-.052-.2-.1-.2-.2v-.15c0-.1.051-.149.2-.226l3.063-1.439a1.232,1.232,0,0,1,.407-.1c.152,0,.2.154.228.307l.227,1.815h.1c.86-1.413,1.924-2.273,3.037-2.273a1.238,1.238,0,0,1,1.316,1.264,1.466,1.466,0,0,1-1.367,1.363,1.984,1.984,0,0,1-.862-.2,1.14,1.14,0,0,0-.707-.205,1.328,1.328,0,0,0-1.062.734,2.867,2.867,0,0,0-.306,1.238v4.867c0,.807.2,1.061.71,1.061h1.117c.149,0,.2.049.2.173v.585c0,.125-.051.176-.178.176-.177,0-1.292-.077-3.142-.077-1.769,0-2.757.077-2.958.077-.128,0-.178-.051-.178-.176v-.554c0-.156.05-.2.225-.2h.89a.592.592,0,0,0,.655-.682Z" transform="translate(-193.189 -52.337)" fill="#fff"/>
    <path id="Path_1266" data-name="Path 1266" d="M299.683,79.74c-.025-.1,0-.179.073-.2l.482-.148c.1-.027.177-.027.228.075l.834,1.413a2.264,2.264,0,0,0,2.18,1.358,1.626,1.626,0,0,0,1.8-1.536c0-1.01-.658-1.466-2.429-1.968-1.722-.5-3.092-1.362-3.092-3.156a3.068,3.068,0,0,1,1.293-2.648,4.21,4.21,0,0,1,2.632-.834,4.933,4.933,0,0,1,2.458.557c.378.2.453.3.478.449l.334,1.721a.359.359,0,0,1-.027.277l-.483.226a.158.158,0,0,1-.2-.1l-1.219-1.361a2.05,2.05,0,0,0-1.592-.779,1.572,1.572,0,0,0-1.748,1.436c0,1.035.761,1.341,2.279,1.739a4.654,4.654,0,0,1,2.534,1.312,2.587,2.587,0,0,1,.758,2.022c0,2.118-1.722,3.632-4.225,3.632a5.37,5.37,0,0,1-2.739-.656.708.708,0,0,1-.2-.276Z" transform="translate(-219.005 -52.749)" fill="#fff"/>
    <path id="Path_1267" data-name="Path 1267" d="M168.378,61.835h-1.013c-.254,0-.356-.2-.4-.656a21.56,21.56,0,0,1-.053-2.173V56.284c0-2.1,0-3.71.053-4.112.024-.206-.053-.307-.2-.307a1.759,1.759,0,0,0-.607.154c-.433.174-2.936,1.059-3.291,1.209-.128.052-.178.1-.178.2v.28c0,.1.025.175.254.225,1.165.306,1.318.809,1.318,1.565v3.56c0,.7-.025,1.511-.052,2.269-.026.407-.152.5-.4.5a9.71,9.71,0,0,1-1.254.037c-1.08,0-1.368-.037-1.368-.037-.555,0-.6-.354-.656-.811-.051-.755-.051-3.327-.051-4.488V52.9c0-1.387.051-6.637.1-8,0-.353-.1-.453-.253-.453a2.192,2.192,0,0,0-.556.149,21.423,21.423,0,0,1-3.8,1.465c-.157.049-.2.148-.2.2v.3c0,.107,0,.154.152.208l.505.148a1.542,1.542,0,0,1,1.29,1.514c.05.656.1,2.825.1,4.592v7.9c0,.707-.383.907-.633.907,0,0-.381.037-1.309.037s-1.291-.037-1.291-.037c-.561,0-.613-.354-.662-.811-.052-.755-.052-3.327-.052-4.488V52.9c0-1.387.052-6.637.1-8,0-.353-.1-.453-.249-.453a2.262,2.262,0,0,0-.559.149,21.3,21.3,0,0,1-3.8,1.465c-.153.049-.2.148-.2.2v.3c0,.107,0,.154.155.208l.5.148a1.544,1.544,0,0,1,1.291,1.514c.052.656.1,2.825.1,4.592v7.9c0,.707-.378.907-.633.907h-.964c-.3,0-.352.049-.352.2v.478c0,.15.052.252.2.252.1,0,4.955-.047,9.729-.047,4.606,0,9.136.047,9.236.047.153,0,.2-.1.2-.252v-.509c0-.124-.051-.173-.254-.173" transform="translate(-109.006 -32.525)" fill="#fff"/>
    <path id="Path_1268" data-name="Path 1268" d="M56.031,59.068c-.165-.156-.459-.416-.478-.441s-.117,0-.143.028a7.467,7.467,0,0,1-5.832,2.651,5.458,5.458,0,0,1-4.352-1.971,10.185,10.185,0,0,1-2.333-6.561c0-3.629,1.673-7.265,5.72-7.265a6.045,6.045,0,0,1,4.409,1.866A8.976,8.976,0,0,1,55,50.653c.074.2.151.3.276.256l.481-.152c.1-.026.128-.1.1-.256-.1-.755-.608-4.79-.608-5.24,0-.357-.049-.408-.355-.408s-.356,0-.4.156l-.206.652c-.048.2-.151.2-.506,0a11.089,11.089,0,0,0-5.113-1.211,8.766,8.766,0,0,0-6.583,2.675A9.768,9.768,0,0,0,39.5,53.886,9.605,9.605,0,0,0,42.235,60.7a9.458,9.458,0,0,0,13.831-1.395.212.212,0,0,0-.035-.238" transform="translate(-28.868 -32.525)" fill="#fff"/>
    <path id="Path_1269" data-name="Path 1269" d="M206.392,55.8a1.544,1.544,0,1,1-1.544-1.541,1.541,1.541,0,0,1,1.544,1.541" transform="translate(-148.577 -39.701)" fill="#fff"/>
  </g>
</svg>
