<svg xmlns="http://www.w3.org/2000/svg" width="86.479" height="75.092" viewBox="0 0 86.479 75.092">
  <g id="collaboration" transform="translate(-60.075 -71.98)">
    <path id="Path_66803" data-name="Path 66803" d="M154.228,203.978l-1.631-2.009c-5.473-6.147-13.333-10.643-15.952-12.048l-1.408,2.232a4.549,4.549,0,0,1-5.024,1.956c-.032-.009-.082-.029-.111-.041a4.622,4.622,0,0,1-3.079-5.4,20.156,20.156,0,0,1,2.355-5.88l-2.384-.337a7.776,7.776,0,0,0-4.8.877l-1.334.724a6.355,6.355,0,0,1-5.5.305l-2.874-1.194L101.46,200.388l4.068,2.73,2.162-2.162a4.383,4.383,0,0,1,6.2,0,4.278,4.278,0,0,1,1.244,2.692,4.349,4.349,0,0,1,5.452,4.232,4.079,4.079,0,0,1-.144,1.07,4.356,4.356,0,0,1,2.681,1.244h.009a4.429,4.429,0,0,1,1.132,4.179,4.311,4.311,0,0,1,2.681,1.235v.009a4.388,4.388,0,0,1,.317,5.851l2.252,2.763a3.194,3.194,0,0,0,4.393-.041,3.1,3.1,0,0,0,.918-2.211,3,3,0,0,0-.827-2.109l-.927-.927a1.121,1.121,0,0,1,1.581-1.59l.947.947.754.765a3.155,3.155,0,0,0,4.434,0,.719.719,0,0,1,.082-.082,3.126,3.126,0,0,0-.062-4.323l-1.906-1.906a1.112,1.112,0,0,1,0-1.581,1.133,1.133,0,0,1,1.59-.009l2.751,2.751a3.182,3.182,0,0,0,4.426,0,3.1,3.1,0,0,0,.918-2.211,3.037,3.037,0,0,0-.845-2.141l-2.874-2.865a1.157,1.157,0,0,1-.326-.795,1.12,1.12,0,0,1,1.915-.795l3.516,3.516a3.476,3.476,0,0,0,2.519,1,2.974,2.974,0,0,0,2.17-.947,3.163,3.163,0,0,0,.815-2.109,3.21,3.21,0,0,0-.223-1.153c-.326-.49-.663-.968-1.021-1.437Z" transform="translate(-29.247 -78.016)" fill="#1a2c56"/>
    <path id="Path_66804" data-name="Path 66804" d="M207.936,179.239l-4.036-1.361a4.653,4.653,0,0,0-5.335,1.8l-.179.282a18.075,18.075,0,0,0-2.461,5.854,2.426,2.426,0,0,0,1.628,2.789,2.249,2.249,0,0,0,2.5-.988l1.959-3.115a1.119,1.119,0,0,1,.95-.525,1.132,1.132,0,0,1,.493.114c.6.293,14.277,7.086,20.586,17.043L230.6,197.4l-11.233-17.591a20.979,20.979,0,0,1-11.432-.572Z" transform="translate(-95.968 -74.669)" fill="#1a2c56"/>
    <path id="Path_66805" data-name="Path 66805" d="M166.963,299.615a2.152,2.152,0,0,0-3.033,0l-2.971,2.971a2.147,2.147,0,0,0,0,3.033,2.209,2.209,0,0,0,3.033,0l2.971-2.971a2.153,2.153,0,0,0,0-3.033h0Z" transform="translate(-70.853 -160.431)" fill="#1a2c56"/>
    <path id="Path_66806" data-name="Path 66806" d="M152.019,281.145a2.152,2.152,0,0,0-3.033,0l-3.772,3.769a2.153,2.153,0,0,0,0,3.033,2.206,2.206,0,0,0,3.033,0l3.772-3.769A2.147,2.147,0,0,0,152.019,281.145Z" transform="translate(-59.728 -147.378)" fill="#1a2c56"/>
    <path id="Path_66807" data-name="Path 66807" d="M137.7,264.184a2.142,2.142,0,0,0-3.657-1.516l-4.569,4.566a2.153,2.153,0,0,0,0,3.033,2.206,2.206,0,0,0,3.033,0l4.569-4.566A2.131,2.131,0,0,0,137.7,264.184Z" transform="translate(-48.604 -134.318)" fill="#1a2c56"/>
    <path id="Path_66808" data-name="Path 66808" d="M120.536,249.655h0a2.153,2.153,0,0,0-3.033,0l-3.769,3.769a2.144,2.144,0,0,0,3.033,3.033l3.769-3.769a2.147,2.147,0,0,0,0-3.033Z" transform="translate(-37.48 -125.124)" fill="#1a2c56"/>
    <path id="Path_66809" data-name="Path 66809" d="M81.445,159.5l-5.188-3.314a1.91,1.91,0,0,0-2.64.581L60.376,177.487a1.929,1.929,0,0,0,.581,2.651l5.188,3.314a1.926,1.926,0,0,0,2.651-.581l13.242-20.724a1.929,1.929,0,0,0-.59-2.651ZM68.1,178.467a2.039,2.039,0,1,1-.622-2.816A2.039,2.039,0,0,1,68.1,178.467Z" transform="translate(0 -59.294)" fill="#1a2c56"/>
    <path id="Path_66810" data-name="Path 66810" d="M301,177.5,287.76,156.774a1.886,1.886,0,0,0-1.2-.836,1.907,1.907,0,0,0-1.446.255l-5.188,3.314a1.924,1.924,0,0,0-.581,2.651l13.242,20.724a1.913,1.913,0,0,0,2.64.581l5.188-3.314A1.926,1.926,0,0,0,301,177.5Zm-4.91,1.6a2.039,2.039,0,1,1,.622-2.816A2.037,2.037,0,0,1,296.092,179.1Z" transform="translate(-154.746 -59.302)" fill="#1a2c56"/>
    <path id="Path_66811" data-name="Path 66811" d="M174.758,71.98a13.588,13.588,0,1,0,13.588,13.588A13.589,13.589,0,0,0,174.758,71.98Zm6.432,11.655-7.13,7.13a1.685,1.685,0,0,1-2.387,0l-3.543-3.543a1.69,1.69,0,1,1,2.39-2.39l2.349,2.346,5.933-5.933a1.69,1.69,0,0,1,2.39,2.39Z" transform="translate(-71.445)" fill="#2bb573"/>
  </g>
</svg>
