<svg xmlns="http://www.w3.org/2000/svg" width="73.304" height="84.115" viewBox="0 0 73.304 84.115">
  <g id="ecology" transform="translate(-86.862 -78.381)">
    <path id="Path_66851" data-name="Path 66851" d="M149.955,260.409a3.456,3.456,0,0,0-.922-2.673,3.532,3.532,0,0,0-3.57-.963l-10.925,3.318a7.464,7.464,0,0,1-.009.837,6.937,6.937,0,0,1-5.56,6.306l-.482.1a71.566,71.566,0,0,1-12.442,1.445l-3.344.094a1.952,1.952,0,0,1-1.423-.538,1.992,1.992,0,0,1,1.307-3.441l3.495-.1a67.029,67.029,0,0,0,11.4-1.313l.7-.142a2.991,2.991,0,0,0,2.386-2.755,2.946,2.946,0,0,0-.765-2.16,3,3,0,0,0-2.078-.979l-17.568-.759a8.75,8.75,0,0,0-5.418,1.6L87.526,271.416a1.691,1.691,0,0,0-.17,2.538l10.176,10.176a1.687,1.687,0,0,0,2.226.142l4.433-3.422a3.171,3.171,0,0,1,2.273-.645l13.258,1.395a9.988,9.988,0,0,0,7.122-2.009l21.765-16.7a3.44,3.44,0,0,0,1.351-2.478Z" transform="translate(0 -122.127)" fill="#1a2c56"/>
    <path id="Path_66852" data-name="Path 66852" d="M199.165,80.27a1.99,1.99,0,0,0-3.394-1.3C185.7,89.179,170.128,88.887,169.123,99.7a9.514,9.514,0,0,0,2.157,6.656,42.605,42.605,0,0,1,15.663-10.062,2.111,2.111,0,0,1,.28-.06c-2.015,1.159-13.973,8.482-19.212,21.9a60.024,60.024,0,0,0-10.475-12.282,34.34,34.34,0,0,0-4.978-3.888,1.376,1.376,0,0,1,.154.038,26.211,26.211,0,0,1,11.6,7.074,5.27,5.27,0,0,0,1.184-4.106c-.535-7.852-11.822-7.906-18.934-15.481a1.442,1.442,0,0,0-2.484.882c-.538,7.024.148,19.007,5.082,22.53,2.749,1.968,7.034,1.675,10.409.173a53.831,53.831,0,0,1,6.955,9.807,35.608,35.608,0,0,0-.963,7.632,1.839,1.839,0,0,0,1.807,1.87h.035a1.84,1.84,0,0,0,1.839-1.807,33.445,33.445,0,0,1,7.276-19.885c4.741,2.6,10.755,3.3,14.9.494,6.9-4.682,8.261-21.2,7.758-30.914Z" transform="translate(-39.095)" fill="#2bb573"/>
  </g>
</svg>
