<svg xmlns="http://www.w3.org/2000/svg" width="82.593" height="78.786" viewBox="0 0 82.593 78.786">
  <g id="environment" transform="translate(-54.795 -77.64)">
    <path id="Path_66849" data-name="Path 66849" d="M123.886,77.652A36.425,36.425,0,0,0,87.54,111.837c4.086,2.134,8.715,3.086,13.211,4.035.386.078.771.157,1.181.259l1.311.181a2.875,2.875,0,0,0,1.055-.027l4.086-.925a1.757,1.757,0,0,0,.386-.13l2.7-1.311a1.778,1.778,0,0,0,.952-1.359l1.13-8.049a1.8,1.8,0,0,0-1.106-1.874l-1.362-.515a1.8,1.8,0,0,1-1.181-1.594A1.76,1.76,0,0,1,111.5,98.7l2.031-.181a1.777,1.777,0,0,0,1.594-1.85l-.13-2.468-.283-4.831a1.753,1.753,0,0,0-1.157-1.57l-1.079-.383a29.008,29.008,0,0,1,11.412-2.338,27.814,27.814,0,0,1,6.425.744l.2,4.291v.127l-.567,5.322a.821.821,0,0,0,.13.539l.618.874a.774.774,0,0,0,1.157.127l1.618-1.465a.8.8,0,0,1,1.284.383l.051.259a.83.83,0,0,0,.72.564l1.85.051a.65.65,0,0,0,.307-.051l1.567-.618a.793.793,0,0,1,1.028.976l-.9,2.727a.711.711,0,0,1-.693.539l-2.106.075c-.078,0-.154-.024-.256-.024l-2.6-.771a.8.8,0,0,0-.539.051l-1.181.542a.94.94,0,0,1-.642,0l-1.645-.744a.692.692,0,0,0-.669.051l-2.055,1.437a.715.715,0,0,0-.283.618l.307,2.417a.759.759,0,0,1-.437.8l-1.516.72a.778.778,0,0,0-.2,1.26l1.079,1.028a.752.752,0,0,0,.693.2l2-.461a.661.661,0,0,1,.488.051l.9.386a11.722,11.722,0,0,1,1.465,1.079.76.76,0,0,0,1.106-.127.836.836,0,0,1,.567-.359l1.567-.181a.606.606,0,0,0,.41-.181l.154-.154a.792.792,0,0,1,1.26.307l.8,2.134a.71.71,0,0,1,.1.2l.874,1.106a.76.76,0,0,1-.078,1.055l-2.161,2a.761.761,0,0,1-1.055,0l-2.082-1.9a1.175,1.175,0,0,1-.2-.157l-2.929-1.233a.715.715,0,0,0-.232-.051l-3.854-.359a1.224,1.224,0,0,0-.283.024l-3.212.925A3.154,3.154,0,0,0,120.1,114.3l-.8,2.39a3.326,3.326,0,0,0,.154,2.338l1.208,2.622a3.186,3.186,0,0,0,2.6,1.826l2.878.28a.727.727,0,0,1,.335.1l1.618.952a.73.73,0,0,1,.386.594l.232,2.929a8.092,8.092,0,0,0,.847,2.905l1.389,2.649a2.882,2.882,0,0,0,.256.307l2.338,1.694a.884.884,0,0,0,1.26-.2l.744-1.031c.078-.127.13-.232.2-.359l1.669-4.192a.73.73,0,0,0,.051-.2l.591-6.093a1.057,1.057,0,0,0,.051-.259l1.208-2.516a.762.762,0,0,1,.8-.437l4.189.539a.749.749,0,0,0,.642-.232l.8-.823a.755.755,0,0,0,.078-1l-1.953-2.622a.768.768,0,0,1,.437-1.208l.771-.181c.1-.024,1.311-.1,1.669-.127.051,0,.078.024.13.024l1.826.307c.539.1.823.461.771.874l-.488,5.268a.763.763,0,0,0,.051.335l1.413,3.779A28.99,28.99,0,0,1,123.871,143c-.618,0-1.233-.024-1.826-.078a50.839,50.839,0,0,1,4.267,5.219,8.913,8.913,0,0,1,1.13,2.134,36.407,36.407,0,0,0-3.574-72.638Z" transform="translate(-22.877)" fill="#1a2c56"/>
    <path id="Path_66850" data-name="Path 66850" d="M74.809,220.819a38.927,38.927,0,0,1,17.668,3.945h0A1.069,1.069,0,0,0,94,223.956a10.312,10.312,0,0,0-.4-4.773c-2.348-7.073-9.11-8.5-16.936-10.137-5.391-1.136-11.5-2.42-16.915-5.84a3.238,3.238,0,0,0-4.906,3.312c1.8,10.107,7.308,28.161,16.556,31.708,4.972,1.911,10.7.735,15.477-3.14a47.809,47.809,0,0,1,6.678,7.326,3.186,3.186,0,0,0,2.89,1.374,3.077,3.077,0,0,0,2.191-4.837c-7.13-10.068-17.759-15.61-23.831-18.126Z" transform="translate(0 -87.375)" fill="#2bb573"/>
  </g>
</svg>
