<svg id="Group_66069" data-name="Group 66069" xmlns="http://www.w3.org/2000/svg" xmlns:xlink="http://www.w3.org/1999/xlink" width="36.042" height="33.936" viewBox="0 0 36.042 33.936">
  <defs>
    <clipPath id="clip-path">
      <rect id="Rectangle_357" data-name="Rectangle 357" width="36.042" height="33.936" fill="none"/>
    </clipPath>
  </defs>
  <g id="Group_66068" data-name="Group 66068" clip-path="url(#clip-path)">
    <path id="Path_66751" data-name="Path 66751" d="M59.874,7.2a.931.931,0,1,0,1.316-1.316L59.971,4.669H74.834L73.615,5.888A.93.93,0,0,0,74.931,7.2L77.738,4.4a.931.931,0,0,0,0-1.316L74.931.273a.93.93,0,0,0-1.316,1.316l1.219,1.219H59.971l1.219-1.219A.931.931,0,1,0,59.874.273L57.066,3.081a.931.931,0,0,0,0,1.316Z" transform="translate(-49.377 -0.001)" fill="#2bb573"/>
    <path id="Path_66752" data-name="Path 66752" d="M246.812,35.124h-2.541V59.335h2.541a3.445,3.445,0,0,1,1.6.389V36.718a1.6,1.6,0,0,0-1.6-1.594" transform="translate(-212.373 -30.537)" fill="#2bb573"/>
    <path id="Path_66753" data-name="Path 66753" d="M4.151,59.336V35.125H1.6A1.6,1.6,0,0,0,0,36.719V59.725a3.472,3.472,0,0,1,1.6-.389Z" transform="translate(0 -30.538)" fill="#2bb573"/>
    <path id="Path_66754" data-name="Path 66754" d="M34.439,95.489H30.927a.964.964,0,0,1-.971-.971V74.474H6.093V94.518a.969.969,0,0,1-.971.971H1.6a1.6,1.6,0,1,0,0,3.2H34.439a1.6,1.6,0,1,0,0-3.2M9.778,79.267a.93.93,0,0,1,.93-.93h3.779a.93.93,0,1,1,0,1.861H11.639v2.849a.93.93,0,1,1-1.861,0ZM26.264,93.892a.93.93,0,0,1-.931.93H10.708a.93.93,0,0,1-.93-.93V90.113a.93.93,0,0,1,1.861,0v2.849h8.984V87.756H14.488a.93.93,0,0,1,0-1.861h2.607V83.046a.93.93,0,1,1,1.861,0V85.9h2.6a.93.93,0,0,1,.93.93v6.136H24.4V90.113a.93.93,0,0,1,1.861,0Zm0-10.846a.93.93,0,1,1-1.861,0V80.2H21.554a.93.93,0,1,1,0-1.861h3.78a.93.93,0,0,1,.931.93Z" transform="translate(0 -64.749)" fill="#fff"/>
  </g>
</svg>
