<svg xmlns="http://www.w3.org/2000/svg" width="103.291" height="73.609" viewBox="0 0 103.291 73.609">
  <g id="governance" transform="translate(-39.179 -82.84)">
    <path id="Path_66833" data-name="Path 66833" d="M94.016,154.063a6.627,6.627,0,1,0-5.87-7.306A6.627,6.627,0,0,0,94.016,154.063Z" transform="translate(-33.215 -39.38)" fill="#1a2c56"/>
    <path id="Path_66834" data-name="Path 66834" d="M61.109,213.4H51.562a4.617,4.617,0,0,1-4.55-3.818l-3.266-18.465a2.3,2.3,0,0,0-4.531.8l3.269,18.465A9.207,9.207,0,0,0,51.562,218h7.929v8.365a2.3,2.3,0,1,0,4.6,0v-9.987a2.981,2.981,0,0,0-2.977-2.977Z" transform="translate(0 -72.214)" fill="#1a2c56"/>
    <path id="Path_66835" data-name="Path 66835" d="M91.565,201.387H85.534l1.57-7.171,4.252,2.052a3.077,3.077,0,0,0,1.329.305h.135l6.419-.286a3.067,3.067,0,0,0-.273-6.127l-5.645.254s-6.426-3.353-7.219-3.539c-.893-.209-4.538-1.005-4.538-1.005a4.893,4.893,0,0,0-5.832,3.786l-2.675,12.858a4.78,4.78,0,0,0,4.682,5.751H88.382a1.244,1.244,0,0,1,1.243,1.243v13.253a3.436,3.436,0,1,0,6.872,0V206.326a4.928,4.928,0,0,0-4.929-4.929Z" transform="translate(-22.931 -69.867)" fill="#1a2c56"/>
    <path id="Path_66836" data-name="Path 66836" d="M277.961,154.062a6.627,6.627,0,1,0-7.306-5.87A6.625,6.625,0,0,0,277.961,154.062Z" transform="translate(-157.116 -39.379)" fill="#1a2c56"/>
    <path id="Path_66837" data-name="Path 66837" d="M306.269,189.261a2.294,2.294,0,0,0-2.665,1.863l-3.269,18.465a4.617,4.617,0,0,1-4.55,3.818h-9.547a2.981,2.981,0,0,0-2.977,2.977v9.987a2.3,2.3,0,1,0,4.6,0v-8.365h7.929a9.207,9.207,0,0,0,9.078-7.614l3.269-18.465a2.3,2.3,0,0,0-1.863-2.665Z" transform="translate(-165.7 -72.221)" fill="#1a2c56"/>
    <path id="Path_66838" data-name="Path 66838" d="M264.21,206.486a4.766,4.766,0,0,0,.973-3.988l-2.678-12.858a4.893,4.893,0,0,0-5.832-3.786s-3.645.793-4.538,1.005c-.793.186-7.219,3.539-7.219,3.539l-5.645-.254a3.067,3.067,0,0,0-.273,6.127l6.419.286h.138a3.032,3.032,0,0,0,1.329-.305l4.252-2.052,1.567,7.171h-6.031a4.928,4.928,0,0,0-4.929,4.929v16.435a3.436,3.436,0,1,0,6.872,0V209.482a1.242,1.242,0,0,1,1.243-1.243H260.5a4.762,4.762,0,0,0,3.709-1.763Z" transform="translate(-133.664 -69.857)" fill="#1a2c56"/>
    <path id="Path_66839" data-name="Path 66839" d="M180.7,226.59H154.789a2.3,2.3,0,1,0,0,4.6h10.658v20.549a2.3,2.3,0,1,0,4.6,0V231.189H180.7a2.3,2.3,0,0,0,0-4.6Z" transform="translate(-76.924 -97.588)" fill="#1a2c56"/>
    <path id="Path_66840" data-name="Path 66840" d="M206.576,97.866a10.072,10.072,0,0,1-1.057,4.473c2.113,1.024,4.316,2.02,6.3,2.765a1.111,1.111,0,0,0,1.211-1.769,10.1,10.1,0,0,1-2.078-3.353c3.073-1.8,5.032-4.5,5.032-7.514,0-5.311-6.024-9.627-13.478-9.627a16.527,16.527,0,0,0-9.1,2.547c7.611,1.179,13.166,6.243,13.166,12.485Z" transform="translate(-104.703)" fill="#2bb573"/>
    <path id="Path_66841" data-name="Path 66841" d="M145.749,116.735a10.249,10.249,0,0,1-2.058,3.378,1.094,1.094,0,0,0,1.2,1.75c2.219-.825,4.766-1.985,7.123-3.134a18.821,18.821,0,0,0,2.19.138c7.453,0,13.494-4.313,13.494-9.634S161.657,99.6,154.2,99.6s-13.494,4.313-13.494,9.634c0,3.031,1.969,5.735,5.035,7.5Zm15.135-9.467a1.967,1.967,0,1,1-1.969,1.965,1.97,1.97,0,0,1,1.969-1.965Zm-6.676,0a1.967,1.967,0,1,1-1.965,1.965,1.97,1.97,0,0,1,1.965-1.965Zm-6.676,0a1.967,1.967,0,1,1-1.969,1.965,1.97,1.97,0,0,1,1.969-1.965Z" transform="translate(-68.927 -11.378)" fill="#2bb573"/>
  </g>
</svg>
