<svg xmlns="http://www.w3.org/2000/svg" xmlns:xlink="http://www.w3.org/1999/xlink" width="38.243" height="45.892" viewBox="0 0 38.243 45.892">
  <defs>
    <clipPath id="clip-path">
      <path id="Path_66797" data-name="Path 66797" d="M0-.668H38.243V-46.56H0Z" transform="translate(0 46.56)" fill="none"/>
    </clipPath>
  </defs>
  <g id="Group_66157" data-name="Group 66157" clip-path="url(#clip-path)">
    <g id="Group_66155" data-name="Group 66155" transform="translate(0.956 0.956)">
      <path id="Path_66795" data-name="Path 66795" d="M-.529-.181h-8.6a3.823,3.823,0,0,1-3.824-3.824v-8.061M-.529-.181V27.545A3.823,3.823,0,0,1-4.353,31.37H-33.036s-3.824,0-3.824-3.824V-8.786a3.823,3.823,0,0,1,3.824-3.824h20.078ZM-31.124,10.336H-6.265m-24.858,5.736H-6.265m0,4.78H-8.178m-3.824,0h-1.912" transform="translate(36.86 12.61)" fill="none"/>
    </g>
    <g id="Group_66156" data-name="Group 66156" transform="translate(0.956 0.956)">
      <path id="Path_66796" data-name="Path 66796" d="M-.529-.181h-8.6a3.823,3.823,0,0,1-3.824-3.824v-8.061M-.529-.181V27.545A3.823,3.823,0,0,1-4.353,31.37H-33.036s-3.824,0-3.824-3.824V-8.786a3.823,3.823,0,0,1,3.824-3.824h20.078ZM-31.124,10.336H-6.265m-24.858,5.736H-6.265m0,4.78H-8.178m-3.824,0h-1.912" transform="translate(36.86 12.61)" fill="none" stroke="#2bb573" stroke-linecap="round" stroke-linejoin="round" stroke-width="1.94"/>
    </g>
  </g>
</svg>
