<svg xmlns="http://www.w3.org/2000/svg" xmlns:xlink="http://www.w3.org/1999/xlink" width="75.24" height="59.565" viewBox="0 0 75.24 59.565">
  <defs>
    <clipPath id="clip-path">
      <rect id="Rectangle_468" data-name="Rectangle 468" width="75.24" height="59.565" fill="none" stroke="#2bb573" stroke-width="2"/>
    </clipPath>
  </defs>
  <g id="Group_66372" data-name="Group 66372" transform="translate(0 0.002)">
    <g id="Group_66371" data-name="Group 66371" transform="translate(0 -0.002)" clip-path="url(#clip-path)">
      <path id="Path_66920" data-name="Path 66920" d="M106.267,62.376a8.965,8.965,0,0,0-1.978.226A11.633,11.633,0,0,0,83.74,53.32a15.22,15.22,0,0,0-29.424,5.473,10.749,10.749,0,0,0,0,21.5h51.952a8.957,8.957,0,0,0,0-17.914Z" transform="translate(-41.776 -41.775)" fill="none" stroke="#2bb573" stroke-linecap="round" stroke-linejoin="round" stroke-width="2"/>
      <line id="Line_89" data-name="Line 89" y1="3.583" x2="3.583" transform="translate(13.884 44.338)" fill="none" stroke="#2bb573" stroke-linecap="round" stroke-linejoin="round" stroke-width="2"/>
      <line id="Line_90" data-name="Line 90" y1="3.583" x2="3.583" transform="translate(29.111 44.338)" fill="none" stroke="#2bb573" stroke-linecap="round" stroke-linejoin="round" stroke-width="2"/>
      <line id="Line_91" data-name="Line 91" y1="3.583" x2="3.583" transform="translate(44.338 44.338)" fill="none" stroke="#2bb573" stroke-linecap="round" stroke-linejoin="round" stroke-width="2"/>
      <line id="Line_92" data-name="Line 92" y1="3.583" x2="3.583" transform="translate(29.111 54.191)" fill="none" stroke="#2bb573" stroke-linecap="round" stroke-linejoin="round" stroke-width="2"/>
      <line id="Line_93" data-name="Line 93" y1="3.583" x2="3.583" transform="translate(44.338 54.191)" fill="none" stroke="#2bb573" stroke-linecap="round" stroke-linejoin="round" stroke-width="2"/>
      <line id="Line_94" data-name="Line 94" y1="3.583" x2="3.583" transform="translate(59.565 44.338)" fill="none" stroke="#2bb573" stroke-linecap="round" stroke-linejoin="round" stroke-width="2"/>
    </g>
  </g>
</svg>
