<svg xmlns="http://www.w3.org/2000/svg" width="79.984" height="80" viewBox="0 0 79.984 80">
  <g id="gear_turning" transform="translate(-68.794 -63.756)">
    <path id="Path_66844" data-name="Path 66844" d="M162.059,171.72l.5-4.892a.448.448,0,0,1,.305-.381,12.837,12.837,0,0,0,1.606-.674.453.453,0,0,1,.488.052l3.817,3.111a1.534,1.534,0,0,0,2.057-.1l2.986-2.986a1.534,1.534,0,0,0,.1-2.057l-3.111-3.817a.448.448,0,0,1-.052-.485,14.024,14.024,0,0,0,.674-1.609.448.448,0,0,1,.381-.305l4.892-.5a1.535,1.535,0,0,0,1.38-1.528v-4.224a1.535,1.535,0,0,0-1.38-1.528l-4.892-.5a.448.448,0,0,1-.381-.305,13.251,13.251,0,0,0-.674-1.609.447.447,0,0,1,.052-.485l3.111-3.817a1.537,1.537,0,0,0-.1-2.057l-2.986-2.986a1.537,1.537,0,0,0-2.057-.1l-3.817,3.111a.452.452,0,0,1-.488.052,14.2,14.2,0,0,0-1.606-.674.448.448,0,0,1-.305-.381l-.5-4.892a1.537,1.537,0,0,0-1.528-1.38h-4.224a1.535,1.535,0,0,0-1.528,1.38l-.5,4.895a.451.451,0,0,1-.308.381,12.835,12.835,0,0,0-1.606.674.453.453,0,0,1-.488-.052l-3.817-3.111a1.534,1.534,0,0,0-2.057.1l-2.986,2.986a1.537,1.537,0,0,0-.1,2.057l3.111,3.817a.446.446,0,0,1,.052.488A14.021,14.021,0,0,0,145.4,149a.448.448,0,0,1-.381.305l-4.892.5a1.535,1.535,0,0,0-1.38,1.528v4.224a1.535,1.535,0,0,0,1.38,1.528l4.892.5a.453.453,0,0,1,.381.305,13.251,13.251,0,0,0,.674,1.609.447.447,0,0,1-.052.485l-3.111,3.817a1.534,1.534,0,0,0,.1,2.057L146,168.838a1.537,1.537,0,0,0,2.057.1l3.817-3.111a.452.452,0,0,1,.488-.052,14.2,14.2,0,0,0,1.606.674.456.456,0,0,1,.308.381l.5,4.895a1.537,1.537,0,0,0,1.528,1.38h4.224a1.535,1.535,0,0,0,1.528-1.383Zm-10.943-18.287a7.3,7.3,0,1,1,7.3,7.3A7.3,7.3,0,0,1,151.116,153.434Z" transform="translate(-49.634 -49.675)" fill="#2bb573"/>
    <path id="Path_66845" data-name="Path 66845" d="M92.632,95.253a2.559,2.559,0,0,0,2.559-2.559V85.309A10.171,10.171,0,0,1,105.35,75.151h5.011v3.544a2.56,2.56,0,0,0,3.884,2.193l10.24-6.188a2.565,2.565,0,0,0,0-4.386l-10.24-6.188a2.56,2.56,0,0,0-3.884,2.193v3.71H105.35A15.3,15.3,0,0,0,90.07,85.306v7.384a2.558,2.558,0,0,0,2.559,2.559Z" transform="translate(-15.095)" fill="#1a2c56"/>
    <path id="Path_66846" data-name="Path 66846" d="M97.723,225.848H90.339A10.171,10.171,0,0,1,80.18,215.69v-5.011h3.544a2.56,2.56,0,0,0,2.193-3.884l-6.188-10.24a2.658,2.658,0,0,0-4.381,0l-6.188,10.24a2.56,2.56,0,0,0,2.193,3.884h3.71v5.011a15.294,15.294,0,0,0,15.277,15.277h7.384a2.559,2.559,0,0,0,0-5.118Z" transform="translate(0 -93.404)" fill="#1a2c56"/>
    <path id="Path_66847" data-name="Path 66847" d="M233.217,230.73a2.56,2.56,0,0,0-2.559,2.559v7.384A10.171,10.171,0,0,1,220.5,250.832h-5.011v-3.544a2.56,2.56,0,0,0-3.884-2.193l-10.24,6.188a2.565,2.565,0,0,0,0,4.386l10.24,6.188a2.56,2.56,0,0,0,3.884-2.193v-3.71H220.5a15.3,15.3,0,0,0,15.28-15.277v-7.384a2.558,2.558,0,0,0-2.559-2.559Z" transform="translate(-93.184 -118.469)" fill="#1a2c56"/>
    <path id="Path_66848" data-name="Path 66848" d="M266.894,106.662a2.56,2.56,0,0,0-2.231-1.3h-3.712V100.35a15.294,15.294,0,0,0-15.277-15.28h-7.384a2.559,2.559,0,0,0,0,5.118h7.384a10.171,10.171,0,0,1,10.159,10.159v5.011h-3.544a2.56,2.56,0,0,0-2.193,3.884l6.188,10.24a2.557,2.557,0,0,0,4.381,0l6.188-10.24a2.552,2.552,0,0,0,.038-2.582Z" transform="translate(-118.442 -15.122)" fill="#1a2c56"/>
  </g>
</svg>
