<svg id="Group_66277" data-name="Group 66277" xmlns="http://www.w3.org/2000/svg" xmlns:xlink="http://www.w3.org/1999/xlink" width="44.766" height="65.044" viewBox="0 0 44.766 65.044">
  <defs>
    <clipPath id="clip-path">
      <rect id="Rectangle_437" data-name="Rectangle 437" width="44.766" height="65.044" fill="none" stroke="#2bb573" stroke-width="2"/>
    </clipPath>
  </defs>
  <g id="Group_66276" data-name="Group 66276" clip-path="url(#clip-path)">
    <path id="Path_66850" data-name="Path 66850" d="M40.172,1397.57C35.2,1398.831,32,1400.794,32,1403c0,3.8,9.493,6.889,21.2,6.889s21.2-3.084,21.2-6.889c0-2.208-3.2-4.172-8.172-5.432" transform="translate(-30.82 -1346.028)" fill="none" stroke="#2bb573" stroke-linecap="round" stroke-linejoin="round" stroke-width="2"/>
    <path id="Path_66851" data-name="Path 66851" d="M81.329,51.558A20.927,20.927,0,1,0,41.68,62.319q.072.145.146.289c1.356,2.64,4.491,6.847,7.813,10.991,4.985,6.216,10.818,12.8,10.818,12.8s5.834-6.585,10.818-12.8c3.323-4.144,6.458-8.351,7.813-10.991q.074-.144.146-.289A20.907,20.907,0,0,0,81.329,51.558Z" transform="translate(-38.071 -30.821)" fill="none" stroke="#2bb573" stroke-linecap="round" stroke-linejoin="round" stroke-width="2"/>
    <circle id="Ellipse_12" data-name="Ellipse 12" cx="9.406" cy="9.406" r="9.406" transform="translate(12.981 12.701)" fill="none" stroke="#2bb573" stroke-linecap="round" stroke-linejoin="round" stroke-width="2"/>
  </g>
</svg>
