<svg xmlns="http://www.w3.org/2000/svg" width="76.029" height="72.963" viewBox="0 0 76.029 72.963">
  <g id="Building_Blocks" transform="translate(-53.86 -60.262)">
    <path id="Path_66856" data-name="Path 66856" d="M71,72.744c-.746,1.618,2.972,3.8,5.816,5.272a2.29,2.29,0,0,1,.635,3.59,1.166,1.166,0,0,1-1.321.264c-2.783-1.321-12.425-5.957-14.572-7.916-2.4-2.222-5.422-4.881-7.314-6.456a1.067,1.067,0,0,1-.044-1.6l5.707-5.338a1.061,1.061,0,0,1,1.373-.078c1.631,1.26,3.807,3.593,5.319,3.848,1.945.327,7.855-.73,10.452.436,2.161.966,8.149,6.717,11.134,9.736h-8.4c-5.738-2.813-8.227-2.955-8.787-1.756Z" fill="#1a2c56"/>
    <path id="Path_66857" data-name="Path 66857" d="M127.335,136.234H99.608a1.069,1.069,0,0,1-1.068-1.068v-9.525c2.725,1.44,5.8,2.949,8.543,4.251a4.314,4.314,0,0,0,1.812.4,5.058,5.058,0,0,0,3.452-1.751,5.427,5.427,0,0,0,.538-5.713h14.45A1.069,1.069,0,0,1,128.4,123.9v11.27a1.067,1.067,0,0,1-1.068,1.068Z" transform="translate(-32.283 -45.208)" fill="#2bb573"/>
    <path id="Path_66858" data-name="Path 66858" d="M99.608,274.91h27.726a1.069,1.069,0,0,1,1.068,1.068v11.27a1.069,1.069,0,0,1-1.068,1.068H99.608a1.069,1.069,0,0,1-1.068-1.068v-11.27a1.069,1.069,0,0,1,1.068-1.068Z" transform="translate(-32.283 -155.092)" fill="#1a2c56"/>
    <path id="Path_66859" data-name="Path 66859" d="M221.318,274.91h27.726a1.069,1.069,0,0,1,1.068,1.068v11.27a1.069,1.069,0,0,1-1.068,1.068H221.318a1.069,1.069,0,0,1-1.068-1.068v-11.27A1.069,1.069,0,0,1,221.318,274.91Z" transform="translate(-120.224 -155.092)" fill="#1a2c56"/>
    <path id="Path_66860" data-name="Path 66860" d="M221.318,150.1h27.726a1.069,1.069,0,0,1,1.068,1.068v11.27a1.069,1.069,0,0,1-1.068,1.068H221.318a1.069,1.069,0,0,1-1.068-1.068v-11.27A1.069,1.069,0,0,1,221.318,150.1Z" transform="translate(-120.224 -64.912)" fill="#1a2c56"/>
    <path id="Path_66861" data-name="Path 66861" d="M99.608,212.5h10.463a1.069,1.069,0,0,1,1.068,1.068v11.27a1.069,1.069,0,0,1-1.068,1.068H99.608a1.069,1.069,0,0,1-1.068-1.068v-11.27a1.069,1.069,0,0,1,1.068-1.068Z" transform="translate(-32.283 -109.998)" fill="#1a2c56"/>
    <path id="Path_66862" data-name="Path 66862" d="M159.1,212.5h28.481a1.069,1.069,0,0,1,1.068,1.068v11.27a1.069,1.069,0,0,1-1.068,1.068H159.1a1.069,1.069,0,0,1-1.068-1.068v-11.27A1.069,1.069,0,0,1,159.1,212.5Z" transform="translate(-75.267 -109.998)" fill="#1a2c56"/>
    <path id="Path_66863" data-name="Path 66863" d="M283.538,212.5H294a1.069,1.069,0,0,1,1.068,1.068v11.27A1.069,1.069,0,0,1,294,225.907H283.538a1.069,1.069,0,0,1-1.068-1.068v-11.27A1.069,1.069,0,0,1,283.538,212.5Z" transform="translate(-165.18 -109.998)" fill="#1a2c56"/>
  </g>
</svg>
