<svg xmlns="http://www.w3.org/2000/svg" width="71.375" height="71.369" viewBox="0 0 71.375 71.369">
  <g id="fix_enhance" transform="translate(-67.87 -72.58)">
    <path id="Path_66842" data-name="Path 66842" d="M100.471,121.269a15.048,15.048,0,0,1-13.685-21.23,6.273,6.273,0,0,1,4.575-3.6h.078l.078-.019c.078,0,.138-.019.194-.019a1.986,1.986,0,0,0,.038-.332,6.266,6.266,0,0,1,3.538-4.535,14.675,14.675,0,0,1,6.255-1.369,14.952,14.952,0,0,1,15.032,15.016c0,.332-.019.645-.038.978l6.49,6.49,8.661-.88a2.587,2.587,0,0,0,2.325-2.579v-7.1a2.554,2.554,0,0,0-2.325-2.56l-8.229-.84a.763.763,0,0,1-.627-.527,27.4,27.4,0,0,0-1.134-2.7.778.778,0,0,1,.078-.821l5.239-6.412a2.581,2.581,0,0,0-.176-3.46l-5.023-5.023a2.581,2.581,0,0,0-3.46-.176L111.946,84.8a.748.748,0,0,1-.821.1,22.418,22.418,0,0,0-2.717-1.134.766.766,0,0,1-.508-.645l-.84-8.229a2.581,2.581,0,0,0-2.56-2.306H97.384a2.566,2.566,0,0,0-2.56,2.306l-.84,8.229a.77.77,0,0,1-.508.645A22.42,22.42,0,0,0,90.759,84.9a.744.744,0,0,1-.821-.1l-6.412-5.221a2.581,2.581,0,0,0-3.46.176l-5.023,5.023a2.581,2.581,0,0,0-.176,3.46l5.239,6.412a.778.778,0,0,1,.078.821,27.4,27.4,0,0,0-1.134,2.7.751.751,0,0,1-.627.527l-8.229.84a2.554,2.554,0,0,0-2.325,2.56v7.116a2.581,2.581,0,0,0,2.325,2.56l8.229.84a.738.738,0,0,1,.627.508,25.919,25.919,0,0,0,1.134,2.717.745.745,0,0,1-.078.8l-5.239,6.43a2.582,2.582,0,0,0,.176,3.46l5.023,5.023a2.581,2.581,0,0,0,3.46.176l6.412-5.239a.741.741,0,0,1,.821-.078,22.318,22.318,0,0,0,2.717,1.115.791.791,0,0,1,.508.645l.84,8.229a2.569,2.569,0,0,0,2.56,2.325H104.5a2.581,2.581,0,0,0,2.56-2.325l.88-8.621-6.53-6.53c-.313.019-.627.019-.937.019Z" fill="#1a2c56"/>
    <path id="Path_66843" data-name="Path 66843" d="M198.189,188a9.8,9.8,0,0,0-9.685-2.428l-15.832-15.832a9.452,9.452,0,0,0,.408-2.779,9.707,9.707,0,0,0-13.8-8.853.954.954,0,0,0-.278,1.542l3.738,3.741a2.843,2.843,0,0,1-.005,4.062,2.907,2.907,0,0,1-4.073,0L154.94,163.7a.985.985,0,0,0-.848-.267.96.96,0,0,0-.7.548,9.816,9.816,0,0,0-.87,4.065,9.734,9.734,0,0,0,12.5,9.339l15.845,15.845A9.949,9.949,0,0,0,180.47,196a9.692,9.692,0,0,0,9.763,9.742,9.831,9.831,0,0,0,4.027-.856.954.954,0,0,0,.289-1.545l-3.741-3.768a2.846,2.846,0,0,1,.005-4.065,3.033,3.033,0,0,1,4.07,0l3.7,3.73a.956.956,0,0,0,1.537-.251,9.308,9.308,0,0,0,.913-4.062,9.8,9.8,0,0,0-2.844-6.911Z" transform="translate(-61.788 -61.788)" fill="#2bb573"/>
  </g>
</svg>
