<svg xmlns="http://www.w3.org/2000/svg" xmlns:xlink="http://www.w3.org/1999/xlink" width="59.157" height="59.157" viewBox="0 0 59.157 59.157">
  <defs>
    <clipPath id="clip-path">
      <path id="Path_66800" data-name="Path 66800" d="M0,6.357H59.157V-52.8H0Z" transform="translate(0 52.8)" fill="none"/>
    </clipPath>
  </defs>
  <g id="Group_66161" data-name="Group 66161" clip-path="url(#clip-path)">
    <g id="Group_66159" data-name="Group 66159" transform="translate(1.232 1.232)">
      <path id="Path_66798" data-name="Path 66798" d="M5.43,3.046A22.184,22.184,0,0,1-16.754,25.23,22.184,22.184,0,0,1-38.938,3.046,22.184,22.184,0,0,1-16.754-19.138,22.184,22.184,0,0,1,5.43,3.046m-50.53,0h11.092M.5,3.046H11.592M-16.754-25.3v11.092m0,34.508V31.392m0-40.66,3.687,8.2,8.634.741-6.355,6.265,1.648,8.2-7.614-3.871-7.615,3.871,1.648-8.2L-29.072-.329l8.634-.739Z" transform="translate(45.1 25.3)" fill="none"/>
    </g>
    <g id="Group_66160" data-name="Group 66160" transform="translate(1.232 1.232)">
      <path id="Path_66799" data-name="Path 66799" d="M5.43,3.046A22.184,22.184,0,0,1-16.754,25.23,22.184,22.184,0,0,1-38.938,3.046,22.184,22.184,0,0,1-16.754-19.138,22.184,22.184,0,0,1,5.43,3.046Zm-50.53,0h11.092M.5,3.046H11.592M-16.754-25.3v11.092m0,34.508V31.392m0-40.66,3.687,8.2,8.634.741-6.355,6.265,1.648,8.2-7.614-3.871-7.615,3.871,1.648-8.2L-29.072-.329l8.634-.739Z" transform="translate(45.1 25.3)" fill="none" stroke="#2bb573" stroke-linecap="round" stroke-linejoin="round" stroke-width="2.2"/>
    </g>
  </g>
</svg>
