<svg xmlns="http://www.w3.org/2000/svg" width="62.216" height="56.701" viewBox="0 0 62.216 56.701">
  <path id="Path_66852" data-name="Path 66852" d="M5.8-14.539H1.162V14.835H5.8ZM48.813,14.835Zm-20.4,0H37V-3.033H28.411ZM23.966-35.244H10.242v5.522H23.966ZM37,14.835V-11.232H48.813V14.835M39.247-22.788h7.319v11.557H39.247Zm3.659,0v-9.567M14.792-35.244v-4.622h4.623v4.622M11.4-22.559v-2.312M17.1-22.559v-2.312m5.707,2.312v-2.312M11.4-16.051v-2.312M17.1-16.051v-2.312m5.707,2.312v-2.312M11.4-9.542v-2.312M17.1-9.542v-2.312M22.81-9.542v-2.312M11.4-3.033V-5.346M17.1-3.033V-5.346M22.81-3.033V-5.346M11.4,3.475V1.163M17.1,3.475V1.163M22.81,3.475V1.163M11.4,9.984V7.672M17.1,9.984V7.672M22.81,9.984V7.672M5.8,14.835V-29.722H28.411V14.835m-33.826,0H54.8M32.705-3.033V-9.252" transform="translate(6.415 40.866)" fill="none" stroke="#2bb573" stroke-linecap="round" stroke-linejoin="round" stroke-width="2"/>
</svg>
