<svg xmlns="http://www.w3.org/2000/svg" width="78.238" height="78.943" viewBox="0 0 78.238 78.943">
  <g id="investment" transform="translate(-65.303 -74.01)">
    <path id="Path_66831" data-name="Path 66831" d="M143.463,214.249a30.366,30.366,0,0,1-14.8,15.827c-7.5,3.587-11.088.6-13.829-1.484-2.495,1.876-6.883,5.254-8.181,9.131a4.136,4.136,0,0,0-.186,1.318v2.248c9.665.433,17.332,3.854,18.217,8.14a.723.723,0,0,1-.7.845H84.873a.7.7,0,0,1-.7-.845c.886-4.286,8.553-7.707,18.2-8.14v-2.248a4.136,4.136,0,0,0-.186-1.318c-1.278-3.874-5.689-7.254-8.181-9.131-2.741,2.082-6.325,5.071-13.829,1.484a30.456,30.456,0,0,1-14.8-15.827,1,1,0,0,1,.659-1.339c3.4-.99,13.045-3.813,22.73.886,7.42,3.607,7.687,7.336,7.13,9.3A42.76,42.76,0,0,0,76.34,217.96a71.155,71.155,0,0,1,14.3,4.925c3.648,1.792,8.428,4.618,11.727,8.492v-17.3c.68.061,1.359.1,2.062.1a16.376,16.376,0,0,0,2.042-.1v17.3c3.319-3.874,8.079-6.7,11.727-8.492a71.06,71.06,0,0,1,14.323-4.925,42.87,42.87,0,0,0-19.579,5.132c-.558-1.957-.288-5.689,7.153-9.3,9.685-4.7,19.309-1.876,22.71-.886a1,1,0,0,1,.659,1.339Z" transform="translate(0 -97.322)" fill="#1a2c56"/>
    <path id="Path_66832" data-name="Path 66832" d="M150.945,74.01A20.086,20.086,0,1,0,171.03,94.095,20.085,20.085,0,0,0,150.945,74.01Zm-.938,18.061h1.862a6.6,6.6,0,0,1,6.569,7.243,6.7,6.7,0,0,1-5.474,5.782v2.646a.529.529,0,0,1-.531.529h-2.974a.544.544,0,0,1-.549-.529v-2.608a6.576,6.576,0,0,1-5.457-5.892.547.547,0,0,1,.546-.584h2.974a.514.514,0,0,1,.529.421A2.533,2.533,0,0,0,150,101.2h1.716a2.622,2.622,0,0,0,2.646-2.1,2.534,2.534,0,0,0-2.5-2.974h-1.551a6.785,6.785,0,0,1-6.862-5.93,6.57,6.57,0,0,1,5.457-7.135v-2.59a.548.548,0,0,1,.549-.546h2.974a.533.533,0,0,1,.531.546v2.59a6.572,6.572,0,0,1,5.474,5.913.545.545,0,0,1-.546.566h-2.994a.51.51,0,0,1-.508-.4A2.564,2.564,0,0,0,151.868,87h-1.716a2.647,2.647,0,0,0-2.646,2.114,2.538,2.538,0,0,0,2.5,2.956Z" transform="translate(-46.519)" fill="#2bb573"/>
  </g>
</svg>
