<svg xmlns="http://www.w3.org/2000/svg" width="68.533" height="75.604" viewBox="0 0 68.533 75.604">
  <g id="checklist_design" transform="translate(-90.44 -70.09)">
    <path id="Path_66853" data-name="Path 66853" d="M138.369,84.158h21.193a2.458,2.458,0,0,0,2.464-2.461V77.741a2.458,2.458,0,0,0-2.464-2.464h-3.957a6.9,6.9,0,0,0-13.366,0h-3.957a2.458,2.458,0,0,0-2.464,2.464V81.7a2.534,2.534,0,0,0,2.552,2.461Zm10.551-10.2a2.815,2.815,0,1,1-2.812,2.815A2.833,2.833,0,0,1,148.92,73.958Z" transform="translate(-32.425)" fill="#1a2c56"/>
    <path id="Path_66854" data-name="Path 66854" d="M128.333,148.868a5.051,5.051,0,0,1,3.834-1.761h.34l2.227-4.764a10.7,10.7,0,0,1,4.051-13.58v-.648a4.239,4.239,0,0,1,3.834-4.236l-.031-17.351a6.25,6.25,0,0,0-6.217-6.277h-3.092v2.815a6.177,6.177,0,0,1-6.155,6.186H105.935a6.119,6.119,0,0,1-6.155-6.186V100.25H96.717a6.281,6.281,0,0,0-6.277,6.277v49.115a6.3,6.3,0,0,0,6.277,6.277H126.44a5.759,5.759,0,0,1,.525-2.909l1.547-3.34a5.009,5.009,0,0,1-1.393-3.154,4.739,4.739,0,0,1,1.208-3.651Zm-13.052-28.207h16.763a1.787,1.787,0,0,1,1.856,1.856,1.822,1.822,0,0,1-1.856,1.856H115.281a1.856,1.856,0,1,1,0-3.711Zm-4.764,25.424-5.381,5.969a2.074,2.074,0,0,1-1.393.619,1.827,1.827,0,0,1-1.422-.619L99.538,148.9a1.871,1.871,0,0,1,.154-2.661,1.785,1.785,0,0,1,2.566.186l1.484,1.67,4.019-4.485a1.787,1.787,0,0,1,2.566-.094,1.736,1.736,0,0,1,.186,2.566Zm0-13.545-5.381,5.969a1.942,1.942,0,0,1-1.393.619,2.065,2.065,0,0,1-1.422-.619l-2.783-3.186a1.8,1.8,0,1,1,2.721-2.352l1.484,1.67,4.019-4.485a1.82,1.82,0,0,1,2.566-.186,1.732,1.732,0,0,1,.186,2.566Zm0-13.58-5.381,6.032a2.074,2.074,0,0,1-1.393.619,2.2,2.2,0,0,1-1.422-.619L99.6,121.806a1.808,1.808,0,0,1,2.721-2.381l1.484,1.67,4.082-4.485a1.81,1.81,0,0,1,2.538-.154,1.737,1.737,0,0,1,.094,2.506ZM121.5,151.434h-6.218a1.8,1.8,0,0,1-1.856-1.856,1.78,1.78,0,0,1,1.856-1.824H121.5a1.79,1.79,0,0,1,1.824,1.824A1.817,1.817,0,0,1,121.5,151.434Zm-6.218-13.545a1.787,1.787,0,0,1-1.856-1.856,1.853,1.853,0,0,1,1.856-1.824h11.875a1.84,1.84,0,1,1,0,3.68Z" transform="translate(0 -21.55)" fill="#1a2c56"/>
    <path id="Path_66855" data-name="Path 66855" d="M257.3,227.93l-2.706-5.8a15.826,15.826,0,0,0,1.693-1.253,1.653,1.653,0,0,0-2.167-2.5c-.3.263-.605.494-.933.737l-4.419-9.48a7.228,7.228,0,0,0-3.605-11.227V195.6a.909.909,0,0,0-.911-.908h-2.581a.911.911,0,0,0-.911.908v2.815a7.231,7.231,0,0,0-3.608,11.222l-4.422,9.475c-.32-.231-.637-.474-.933-.725a1.649,1.649,0,1,0-2.155,2.495,14.867,14.867,0,0,0,1.681,1.253l-2.706,5.8a2.573,2.573,0,0,0-.2,1.484l.825,4.762a.654.654,0,0,0,1.242.166l4.784-10.248a22.154,22.154,0,0,0,6.038,1.276v.968a1.65,1.65,0,1,0,3.3,0v-.968a22.136,22.136,0,0,0,6.049-1.265l4.773,10.237a.655.655,0,0,0,1.245-.166l.825-4.762a2.482,2.482,0,0,0-.2-1.484Zm-14.336-25.461a2.85,2.85,0,1,1-2.849,2.852A2.854,2.854,0,0,1,242.964,202.469Zm1.647,19.6v-.825a1.65,1.65,0,0,0-3.3,0v.825a18.88,18.88,0,0,1-4.65-.968l4.136-8.864a7.263,7.263,0,0,0,4.336,0l4.131,8.878a19.177,19.177,0,0,1-4.653.956Z" transform="translate(-98.565 -89.031)" fill="#2bb573"/>
  </g>
</svg>
