<svg xmlns="http://www.w3.org/2000/svg" xmlns:xlink="http://www.w3.org/1999/xlink" width="59.43" height="36.803" viewBox="0 0 59.43 36.803">
  <defs>
    <clipPath id="clip-path">
      <path id="Path_66808" data-name="Path 66808" d="M0-9.014H59.43v-36.8H0Z" transform="translate(0 45.817)" fill="none"/>
    </clipPath>
  </defs>
  <path id="Path_66806" data-name="Path 66806" d="M28.654-9.62H1v-35.2H28.654Zm-13.827-35.2v35.2M11.056-34.761H18.6M11.056-18.419H18.6m10.056-26.4h1.257L58.822-33.5V-9.62H28.654M36.2-37.274v23.883m7.542-21.369v21.369m7.542-17.6v17.6" transform="translate(-0.197 45.62)" fill="none"/>
  <g id="Group_66172" data-name="Group 66172" clip-path="url(#clip-path)">
    <path id="Path_66807" data-name="Path 66807" d="M28.654-9.62H1v-35.2H28.654Zm-13.827-35.2v35.2M11.056-34.761H18.6M11.056-18.419H18.6m10.056-26.4h1.257L58.822-33.5V-9.62H28.654M36.2-37.274v23.883m7.542-21.369v21.369m7.542-17.6v17.6" transform="translate(-0.197 45.62)" fill="none" stroke="#2bb573" stroke-width="2"/>
  </g>
</svg>
