<svg xmlns="http://www.w3.org/2000/svg" width="79.95" height="88.344" viewBox="0 0 79.95 88.344">
  <g id="target" transform="translate(-73.677 -66.088)">
    <path id="Path_66864" data-name="Path 66864" d="M165.853,142.58a15.685,15.685,0,1,0,15.686,15.683A15.7,15.7,0,0,0,165.853,142.58Zm0,25.97a10.285,10.285,0,1,1,10.287-10.287A10.3,10.3,0,0,1,165.853,168.55Z" transform="translate(-52.199 -52.198)" fill="#1a2c56"/>
    <path id="Path_66865" data-name="Path 66865" d="M138.26,103.784c-14.425.556-26.694,13.13-26.907,27.564a28.022,28.022,0,0,0,14.162,24.77.639.639,0,0,0,.746-.089l3.2-2.97a.631.631,0,0,0-.146-1.029,22.611,22.611,0,1,1,19.58.248.633.633,0,0,0-.187,1.013l2.995,3.116a.638.638,0,0,0,.756.124,28.01,28.01,0,0,0-14.206-52.747Z" transform="translate(-25.708 -25.709)" fill="#1a2c56"/>
    <path id="Path_66866" data-name="Path 66866" d="M112.495,66.1c-21,.6-38.668,18.662-38.817,39.671a39.952,39.952,0,0,0,17.023,33,.637.637,0,0,0,.8-.057l3.1-2.877a.637.637,0,0,0-.086-1,34.572,34.572,0,1,1,37.207.686.637.637,0,0,0-.13.985l2.916,3.036a.636.636,0,0,0,.8.1A39.968,39.968,0,0,0,112.491,66.1Z" fill="#1a2c56"/>
    <path id="Path_66867" data-name="Path 66867" d="M184.7,271.935h-4.488a.972.972,0,0,0-.972.972v12.12a.972.972,0,0,1-.972.972H168.9a.972.972,0,0,1-.972-.972v-12.12a.972.972,0,0,0-.972-.972H162.47a.971.971,0,0,1-.686-1.658l11.11-11.106a.972.972,0,0,1,1.372,0l11.113,11.106a.971.971,0,0,1-.686,1.658Z" transform="translate(-59.929 -131.567)" fill="#2bb573"/>
  </g>
</svg>
