<svg xmlns="http://www.w3.org/2000/svg" xmlns:xlink="http://www.w3.org/1999/xlink" width="61" height="58" viewBox="0 0 61 58">
  <defs>
    <clipPath id="clip-path">
      <rect id="Rectangle_463" data-name="Rectangle 463" width="61" height="58" transform="translate(0 0)" fill="none" stroke="#2bb573" stroke-width="2"/>
    </clipPath>
  </defs>
  <g id="Group_66364" data-name="Group 66364" transform="translate(0 -0.472)">
    <g id="Group_66363" data-name="Group 66363" transform="translate(0 0.472)" clip-path="url(#clip-path)">
      <path id="Path_66889" data-name="Path 66889" d="M1630,356.808a6.707,6.707,0,1,1,12.509,3.355" transform="translate(-1590.938 -342.24)" fill="none" stroke="#2bb573" stroke-linecap="round" stroke-linejoin="round" stroke-width="2"/>
      <line id="Line_82" data-name="Line 82" x2="2.033" y2="2.033" transform="translate(35.604 4.4)" fill="none" stroke="#2bb573" stroke-linecap="round" stroke-linejoin="round" stroke-width="2"/>
      <line id="Line_83" data-name="Line 83" x2="2.033" y2="2.033" transform="translate(53.905 22.701)" fill="none" stroke="#2bb573" stroke-linecap="round" stroke-linejoin="round" stroke-width="2"/>
      <line id="Line_84" data-name="Line 84" x1="2.033" y2="2.033" transform="translate(53.905 4.4)" fill="none" stroke="#2bb573" stroke-linecap="round" stroke-linejoin="round" stroke-width="2"/>
      <line id="Line_85" data-name="Line 85" x1="4" transform="translate(57 15)" fill="none" stroke="#2bb573" stroke-linecap="round" stroke-linejoin="round" stroke-width="2"/>
      <line id="Line_86" data-name="Line 86" x1="4" transform="translate(31 15)" fill="none" stroke="#2bb573" stroke-linecap="round" stroke-linejoin="round" stroke-width="2"/>
      <line id="Line_87" data-name="Line 87" y2="3" transform="translate(46 0)" fill="none" stroke="#2bb573" stroke-linecap="round" stroke-linejoin="round" stroke-width="2"/>
      <path id="Path_66890" data-name="Path 66890" d="M85.788,820.674H30.96a.959.959,0,0,1-.906-1.27l9.885-28.757a.959.959,0,0,1,.907-.647H75.9a.959.959,0,0,1,.906.647L86.694,819.4A.959.959,0,0,1,85.788,820.674Z" transform="translate(-29.282 -771.598)" fill="none" stroke="#2bb573" stroke-linecap="round" stroke-linejoin="round" stroke-width="2"/>
      <path id="Path_66891" data-name="Path 66891" d="M1077.668,2230v4.793H1070V2230" transform="translate(-1044.358 -2177.09)" fill="none" stroke="#2bb573" stroke-linecap="round" stroke-linejoin="round" stroke-width="2"/>
      <line id="Line_88" data-name="Line 88" x2="21" transform="translate(19 57)" fill="none" stroke="#2bb573" stroke-linecap="round" stroke-linejoin="round" stroke-width="2"/>
      <path id="Path_66892" data-name="Path 66892" d="M533.444,1150H499.185" transform="translate(-487.222 -1122.971)" fill="none" stroke="#2bb573" stroke-linecap="round" stroke-linejoin="round" stroke-width="2"/>
      <path id="Path_66893" data-name="Path 66893" d="M402.439,1550H361.585" transform="translate(-352.92 -1513.385)" fill="none" stroke="#2bb573" stroke-linecap="round" stroke-linejoin="round" stroke-width="2"/>
      <path id="Path_66894" data-name="Path 66894" d="M796.86,950l-.594,4.793-1.2,9.586-1.083,8.627" transform="translate(-774.958 -927.764)" fill="none" stroke="#2bb573" stroke-linecap="round" stroke-linejoin="round" stroke-width="2"/>
      <path id="Path_66895" data-name="Path 66895" d="M1513.985,950l.6,4.793,1.2,9.586,1.074,8.627" transform="translate(-1477.703 -927.764)" fill="none" stroke="#2bb573" stroke-linecap="round" stroke-linejoin="round" stroke-width="2"/>
    </g>
  </g>
</svg>
