<svg id="Group_66367" data-name="Group 66367" xmlns="http://www.w3.org/2000/svg" xmlns:xlink="http://www.w3.org/1999/xlink" width="66.67" height="63.55" viewBox="0 0 66.67 63.55">
  <defs>
    <clipPath id="clip-path">
      <rect id="Rectangle_465" data-name="Rectangle 465" width="66.67" height="63.55" fill="none" stroke="#2bb573" stroke-width="2"/>
    </clipPath>
  </defs>
  <g id="Group_66366" data-name="Group 66366" clip-path="url(#clip-path)">
    <path id="Path_66902" data-name="Path 66902" d="M75.947,173.476a43.215,43.215,0,0,1-9.451,5.142,20.25,20.25,0,0,1-10.6,1.122c-4.893-.923-9.048-4.063-12.829-7.3s-7.492-6.744-12.087-8.661a22.958,22.958,0,0,0-20.4,1.89" transform="translate(-9.93 -152.182)" fill="none" stroke="#2bb573" stroke-linecap="round" stroke-linejoin="round" stroke-width="2"/>
    <path id="Path_66903" data-name="Path 66903" d="M75.947,350.848A43.216,43.216,0,0,1,66.5,355.99a20.249,20.249,0,0,1-10.6,1.122c-4.893-.923-9.048-4.063-12.829-7.3s-7.492-6.744-12.087-8.661a22.958,22.958,0,0,0-20.4,1.89" transform="translate(-9.93 -318.599)" fill="none" stroke="#2bb573" stroke-linecap="round" stroke-linejoin="round" stroke-width="2"/>
    <path id="Path_66904" data-name="Path 66904" d="M75.947,528.22a43.213,43.213,0,0,1-9.451,5.142,20.25,20.25,0,0,1-10.6,1.122c-4.893-.923-9.048-4.063-12.829-7.3s-7.492-6.744-12.087-8.661a22.958,22.958,0,0,0-20.4,1.89" transform="translate(-9.93 -485.017)" fill="none" stroke="#2bb573" stroke-linecap="round" stroke-linejoin="round" stroke-width="2"/>
    <path id="Path_66905" data-name="Path 66905" d="M534.569,21.2c-12.057,9.1-28.769,4.848-34.829-10.612" transform="translate(-468.876 -9.929)" fill="none" stroke="#2bb573" stroke-linecap="round" stroke-linejoin="round" stroke-width="2"/>
    <path id="Path_66906" data-name="Path 66906" d="M485.749,18.854l.864-8.271,7.09,3.244" transform="translate(-455.749 -9.93)" fill="none" stroke="#2bb573" stroke-linecap="round" stroke-linejoin="round" stroke-width="2"/>
    <path id="Path_66907" data-name="Path 66907" d="M13.419,711.205c13.461-6.852,29.174.254,32.439,16.535" transform="translate(-12.59 -664.843)" fill="none" stroke="#2bb573" stroke-linecap="round" stroke-linejoin="round" stroke-width="2"/>
    <path id="Path_66908" data-name="Path 66908" d="M443.526,888.984l-2.3,7.993-6.414-4.433" transform="translate(-407.962 -834.08)" fill="none" stroke="#2bb573" stroke-linecap="round" stroke-linejoin="round" stroke-width="2"/>
  </g>
</svg>
