<svg xmlns="http://www.w3.org/2000/svg" width="81.283" height="74.447" viewBox="0 0 81.283 74.447">
  <g id="payment" transform="translate(-39.99 -77.538)">
    <path id="Path_66824" data-name="Path 66824" d="M183.718,264.057l-17.56-6.418a7.753,7.753,0,0,0-5.028.069L146.4,262.995a2.7,2.7,0,0,0-1.511,1.379,2.647,2.647,0,0,0,2.675,3.748l.632-.061a59.634,59.634,0,0,0,10.009-1.889l3.025-.844a1.775,1.775,0,0,1,2.184,1.233,1.806,1.806,0,0,1-.163,1.351,1.786,1.786,0,0,1-1.067.833l-2.874.8a64.064,64.064,0,0,1-10.985,2.063l-.4.039a6.167,6.167,0,0,1-6.393-3.891,6.6,6.6,0,0,1-.229-.709l-10.163.066a3.144,3.144,0,0,0-2.78,1.762,3.113,3.113,0,0,0,1.726,4.267L153,281.586a8.885,8.885,0,0,0,6.58-.171l10.913-4.691a2.8,2.8,0,0,1,2.1-.052l4.261,1.583a2,2,0,0,0,2.474-.943l5.488-10.444a2,2,0,0,0-1.084-2.813Z" transform="translate(-63.77 -130.151)" fill="#1a2c56"/>
    <path id="Path_66825" data-name="Path 66825" d="M80.146,95.3a2.647,2.647,0,0,0-2.675-3.748l-.632.061A59.357,59.357,0,0,0,66.83,93.5l-3.025.844a1.775,1.775,0,0,1-2.184-1.233,1.772,1.772,0,0,1,1.23-2.187l2.874-.8a64.063,64.063,0,0,1,10.985-2.063l.4-.039A6.167,6.167,0,0,1,83.5,91.916a6.6,6.6,0,0,1,.229.709L93.9,92.558a3.155,3.155,0,0,0,2.78-1.762,3.113,3.113,0,0,0-1.726-4.267L72.034,78.087a8.885,8.885,0,0,0-6.58.171L54.541,82.949a2.8,2.8,0,0,1-2.1.052l-4.261-1.583a2,2,0,0,0-2.474.943L40.221,92.806a2,2,0,0,0,1.084,2.813l17.56,6.418a7.753,7.753,0,0,0,5.028-.069l14.733-5.284a2.7,2.7,0,0,0,1.511-1.379Z" fill="#1a2c56"/>
    <path id="Path_66826" data-name="Path 66826" d="M133.2,226.168a7.845,7.845,0,0,0,15.32,2.383,10.636,10.636,0,0,1-4.719-8.85,5.313,5.313,0,0,1,.047-.863,7.485,7.485,0,0,0-2.8-.538,7.868,7.868,0,0,0-7.846,7.871Z" transform="translate(-67.503 -101.941)" fill="#2bb573"/>
    <path id="Path_66827" data-name="Path 66827" d="M189.672,210.644a7.852,7.852,0,1,0-7.852-7.852A7.851,7.851,0,0,0,189.672,210.644Z" transform="translate(-102.714 -85.023)" fill="#2bb573"/>
    <path id="Path_66828" data-name="Path 66828" d="M205.513,153.774v-5.932a1.751,1.751,0,1,0-3.5,0v5.932a1.751,1.751,0,1,0,3.5,0Z" transform="translate(-117.336 -49.646)" fill="#2bb573"/>
    <path id="Path_66829" data-name="Path 66829" d="M176.993,167.094v-5.932a1.751,1.751,0,1,0-3.5,0v5.932a1.751,1.751,0,1,0,3.5,0Z" transform="translate(-96.682 -59.292)" fill="#2bb573"/>
    <path id="Path_66830" data-name="Path 66830" d="M148.473,180.424v-5.932a1.751,1.751,0,0,0-3.5,0v5.932a1.751,1.751,0,0,0,3.5,0Z" transform="translate(-76.027 -68.946)" fill="#2bb573"/>
  </g>
</svg>
