<svg xmlns="http://www.w3.org/2000/svg" xmlns:xlink="http://www.w3.org/1999/xlink" width="52.336" height="62.004" viewBox="0 0 52.336 62.004">
  <defs>
    <clipPath id="clip-path">
      <rect id="Rectangle_436" data-name="Rectangle 436" width="52.336" height="62.004" fill="none" stroke="#2bb573" stroke-width="2"/>
    </clipPath>
  </defs>
  <g id="Group_66275" data-name="Group 66275" clip-path="url(#clip-path)">
    <path id="Path_66844" data-name="Path 66844" d="M57.761,1060.443c4,1.464,6.479,3.486,6.479,5.72,0,4.467-9.9,8.089-22.12,8.089S20,1070.63,20,1066.163c0-2.218,2.441-4.227,6.393-5.688" transform="translate(-19.108 -1013.14)" fill="none" stroke="#2bb573" stroke-linecap="round" stroke-linejoin="round" stroke-width="2"/>
    <path id="Path_66845" data-name="Path 66845" d="M98.441,669.155c0,13.86-9.09,25.1-20.3,25.1s-20.3-11.236-20.3-25.1" transform="translate(-55.257 -639.306)" fill="none" stroke="#2bb573" stroke-linecap="round" stroke-linejoin="round" stroke-width="2"/>
    <ellipse id="Ellipse_11" data-name="Ellipse 11" cx="20.296" cy="4.372" rx="20.296" ry="4.372" transform="translate(2.571 25.471)" fill="none" stroke="#2bb573" stroke-linecap="round" stroke-linejoin="round" stroke-width="2"/>
    <path id="Path_66846" data-name="Path 66846" d="M898.777,679h3.837a4.435,4.435,0,0,1,4.074,6.194c-1.346,3.1-4.382,6.335-11.125,6.977" transform="translate(-855.614 -648.712)" fill="none" stroke="#2bb573" stroke-miterlimit="10" stroke-width="2"/>
    <path id="Path_66847" data-name="Path 66847" d="M262.632,158.308c0-4.327,4.015-4.327,4.015-8.654s-4.015-4.327-4.015-8.654" transform="translate(-250.917 -134.71)" fill="none" stroke="#2bb573" stroke-linecap="round" stroke-linejoin="round" stroke-width="2"/>
    <path id="Path_66848" data-name="Path 66848" d="M473.632,37.308c0-4.327,4.015-4.327,4.015-8.654s-4.015-4.327-4.015-8.654" transform="translate(-452.505 -19.108)" fill="none" stroke="#2bb573" stroke-linecap="round" stroke-linejoin="round" stroke-width="2"/>
    <path id="Path_66849" data-name="Path 66849" d="M684.632,158.308c0-4.327,4.015-4.327,4.015-8.654s-4.015-4.327-4.015-8.654" transform="translate(-654.093 -134.71)" fill="none" stroke="#2bb573" stroke-linecap="round" stroke-linejoin="round" stroke-width="2"/>
  </g>
</svg>
