<svg id="Group_66180" data-name="Group 66180" xmlns="http://www.w3.org/2000/svg" xmlns:xlink="http://www.w3.org/1999/xlink" width="21" height="21" viewBox="0 0 21 21">
  <defs>
    <clipPath id="clip-path">
      <rect id="Rectangle_409" data-name="Rectangle 409" width="21" height="21" fill="#fff"/>
    </clipPath>
  </defs>
  <g id="Group_66180-2" data-name="Group 66180" clip-path="url(#clip-path)">
    <path id="Path_66815" data-name="Path 66815" d="M19.7,0H1.57A1.553,1.553,0,0,0,0,1.534v18.2a1.554,1.554,0,0,0,1.57,1.535H19.7a1.556,1.556,0,0,0,1.573-1.535V1.534A1.555,1.555,0,0,0,19.7,0M6.311,18.128H3.152V7.975H6.311ZM4.733,6.589A1.83,1.83,0,1,1,6.562,4.758,1.831,1.831,0,0,1,4.733,6.589m13.4,11.539H14.974V13.19c0-1.177-.021-2.691-1.64-2.691-1.64,0-1.892,1.284-1.892,2.607v5.022H8.291V7.975h3.023V9.363h.044a3.316,3.316,0,0,1,2.985-1.639c3.2,0,3.786,2.1,3.786,4.836Z" fill="#fff"/>
  </g>
</svg>
