<svg xmlns="http://www.w3.org/2000/svg" width="1140" height="217.6" viewBox="0 0 1140 217.6">
  <g id="Group_66356" data-name="Group 66356" transform="translate(-150.25 -3303)">
    <line id="Line_72" data-name="Line 72" y2="11" transform="translate(151 3410.5)" fill="none" stroke="#fff" stroke-width="1.5"/>
    <g id="Group_66343" data-name="Group 66343">
      <line id="Line_53" data-name="Line 53" x2="1138.5" transform="translate(151 3415.5)" fill="none" stroke="#fff" stroke-width="1.5"/>
      <line id="Line_74" data-name="Line 74" y2="11" transform="translate(1289.5 3410.5)" fill="none" stroke="#fff" stroke-width="1.5"/>
    </g>
    <g id="Group_66347" data-name="Group 66347" transform="translate(-48)">
      <g id="Group_66340" data-name="Group 66340" transform="translate(270)">
        <rect id="Rectangle_458" data-name="Rectangle 458" width="204" height="36" transform="translate(406 3459)" fill="#28a96b"/>
        <path id="Path_66892" data-name="Path 66892" d="M1.08-12.6V0H9.738V-2.322H3.78V-5.238H8.46V-7.452H3.78v-2.826H9.54V-12.6ZM20-2.142H19.71a.672.672,0,0,1-.45-.126.606.606,0,0,1-.144-.468V-5.994a3.027,3.027,0,0,0-1.071-2.5,4.718,4.718,0,0,0-3.033-.864,5.2,5.2,0,0,0-3.006.783,2.854,2.854,0,0,0-1.26,2.2h2.448a1.217,1.217,0,0,1,.54-.828,2.007,2.007,0,0,1,1.152-.306,1.98,1.98,0,0,1,1.26.369,1.2,1.2,0,0,1,.468,1v.45H14.778a5.28,5.28,0,0,0-3.159.8A2.658,2.658,0,0,0,10.53-2.61,2.365,2.365,0,0,0,11.475-.6a4.043,4.043,0,0,0,2.493.711A3.59,3.59,0,0,0,15.75-.306a3.5,3.5,0,0,0,1.242-1.206Q16.956,0,18.7,0H20ZM16.614-4v.18A2.1,2.1,0,0,1,16.02-2.3a2.135,2.135,0,0,1-1.566.567,1.582,1.582,0,0,1-1-.288.931.931,0,0,1-.369-.774,1.031,1.031,0,0,1,.441-.891A2.093,2.093,0,0,1,14.76-4ZM26.622-9.252H26.19a3.286,3.286,0,0,0-1.638.351,2.875,2.875,0,0,0-1.026,1.035l-.234-1.386h-2.3V0h2.538V-4.536a2.8,2.8,0,0,1,.5-1.764,1.882,1.882,0,0,1,1.584-.648h1.008ZM27.756-12.6V0h2.538V-12.6Zm6.1,3.348h-2.7L34.722.054l-.234.612a1.535,1.535,0,0,1-.414.63,1.187,1.187,0,0,1-.7.162h-1.4V3.6h2.466a2.358,2.358,0,0,0,1.143-.243,1.949,1.949,0,0,0,.729-.72,8.581,8.581,0,0,0,.612-1.323l4.1-10.566H38.3l-2.2,6.642ZM45.54,0h2.79L49.3-2.754H54.09L55.062,0h2.9L53.388-12.6h-3.24Zm4.482-4.932L51.678-9.72l1.674,4.788ZM65.943-.855A4.056,4.056,0,0,0,67.374-3.51h-2.61a1.912,1.912,0,0,1-.639,1.134,1.857,1.857,0,0,1-1.233.414A1.93,1.93,0,0,1,61.308-2.7a2.977,2.977,0,0,1-.594-1.926,2.977,2.977,0,0,1,.594-1.926,1.93,1.93,0,0,1,1.584-.738,1.82,1.82,0,0,1,1.206.405A1.958,1.958,0,0,1,64.746-5.8h2.628a4.056,4.056,0,0,0-1.44-2.619A4.661,4.661,0,0,0,62.91-9.36a5.264,5.264,0,0,0-2.529.585,4.048,4.048,0,0,0-1.674,1.656,5.119,5.119,0,0,0-.585,2.493,5.133,5.133,0,0,0,.585,2.484A4.048,4.048,0,0,0,60.372-.477a5.211,5.211,0,0,0,2.52.585A4.668,4.668,0,0,0,65.943-.855Zm10.134,0A4.056,4.056,0,0,0,77.508-3.51H74.9a1.912,1.912,0,0,1-.639,1.134,1.857,1.857,0,0,1-1.233.414A1.93,1.93,0,0,1,71.442-2.7a2.977,2.977,0,0,1-.594-1.926,2.977,2.977,0,0,1,.594-1.926,1.93,1.93,0,0,1,1.584-.738,1.82,1.82,0,0,1,1.206.405A1.958,1.958,0,0,1,74.88-5.8h2.628a4.056,4.056,0,0,0-1.44-2.619,4.661,4.661,0,0,0-3.024-.945,5.264,5.264,0,0,0-2.529.585,4.048,4.048,0,0,0-1.674,1.656,5.119,5.119,0,0,0-.585,2.493,5.133,5.133,0,0,0,.585,2.484A4.048,4.048,0,0,0,70.506-.477a5.211,5.211,0,0,0,2.52.585A4.668,4.668,0,0,0,76.077-.855Zm2.9-6.264a5.158,5.158,0,0,0-.585,2.511,5,5,0,0,0,.6,2.493A4.055,4.055,0,0,0,80.721-.468a5.8,5.8,0,0,0,2.673.576A4.981,4.981,0,0,0,85.5-.315a3.807,3.807,0,0,0,1.476-1.161,3.64,3.64,0,0,0,.7-1.656h-2.5a1.573,1.573,0,0,1-.675.981,2.318,2.318,0,0,1-1.287.333,2.031,2.031,0,0,1-1.53-.576,2.519,2.519,0,0,1-.648-1.584V-4.05H87.75a4.651,4.651,0,0,0,.072-.864A4.58,4.58,0,0,0,87.2-7.263a4.091,4.091,0,0,0-1.674-1.548,5.352,5.352,0,0,0-2.475-.549,4.939,4.939,0,0,0-2.439.585A4.106,4.106,0,0,0,78.975-7.119Zm6.309,1.413H81.09a1.951,1.951,0,0,1,.675-1.287A2.093,2.093,0,0,1,83.16-7.47a2.2,2.2,0,0,1,1.431.459A1.979,1.979,0,0,1,85.284-5.706Zm5.922,2.628H88.794A2.9,2.9,0,0,0,90.072-.747,5.3,5.3,0,0,0,93.2.108a5.987,5.987,0,0,0,2.187-.369,3.364,3.364,0,0,0,1.476-1.053A2.51,2.51,0,0,0,97.4-2.9a2.134,2.134,0,0,0-1-2.007,7.488,7.488,0,0,0-2.871-.8q-.882-.09-1.26-.162a1.592,1.592,0,0,1-.612-.234.552.552,0,0,1-.234-.486.816.816,0,0,1,.441-.72,2.2,2.2,0,0,1,1.161-.27,2.229,2.229,0,0,1,1.269.333,1.149,1.149,0,0,1,.549.855h2.412A2.743,2.743,0,0,0,96-8.586a5.412,5.412,0,0,0-3.051-.81,5.308,5.308,0,0,0-2.07.378,3.173,3.173,0,0,0-1.395,1.071,2.671,2.671,0,0,0-.5,1.593,2.071,2.071,0,0,0,.486,1.44,2.829,2.829,0,0,0,1.3.792,12.527,12.527,0,0,0,2.034.414q.9.108,1.3.189a1.377,1.377,0,0,1,.612.261.663.663,0,0,1,.216.54.817.817,0,0,1-.468.747,2.635,2.635,0,0,1-1.278.261A2.363,2.363,0,0,1,91.8-2.088,1.307,1.307,0,0,1,91.206-3.078Zm9.54,0H98.334A2.9,2.9,0,0,0,99.612-.747a5.3,5.3,0,0,0,3.132.855,5.987,5.987,0,0,0,2.187-.369,3.364,3.364,0,0,0,1.476-1.053,2.51,2.51,0,0,0,.531-1.584,2.134,2.134,0,0,0-1-2.007,7.488,7.488,0,0,0-2.871-.8q-.882-.09-1.26-.162A1.592,1.592,0,0,1,101.2-6.1a.552.552,0,0,1-.234-.486.816.816,0,0,1,.441-.72,2.2,2.2,0,0,1,1.161-.27,2.229,2.229,0,0,1,1.269.333,1.149,1.149,0,0,1,.549.855h2.412a2.743,2.743,0,0,0-1.251-2.2,5.412,5.412,0,0,0-3.051-.81,5.308,5.308,0,0,0-2.07.378,3.173,3.173,0,0,0-1.395,1.071,2.671,2.671,0,0,0-.5,1.593,2.071,2.071,0,0,0,.486,1.44,2.829,2.829,0,0,0,1.3.792,12.527,12.527,0,0,0,2.034.414q.9.108,1.3.189a1.377,1.377,0,0,1,.612.261.663.663,0,0,1,.216.54.817.817,0,0,1-.468.747,2.635,2.635,0,0,1-1.278.261,2.363,2.363,0,0,1-1.386-.378A1.307,1.307,0,0,1,100.746-3.078ZM112.05,0h2.79l.972-2.754H120.6L121.572,0h2.9L119.9-12.6h-3.24Zm4.482-4.932,1.656-4.788,1.674,4.788Zm7.056-4.32L126.918,0h3.15l3.33-9.252h-2.664l-2.2,6.66-2.232-6.66Zm19.35,7.11h-.288a.672.672,0,0,1-.45-.126.606.606,0,0,1-.144-.468V-5.994a3.027,3.027,0,0,0-1.071-2.5,4.718,4.718,0,0,0-3.033-.864,5.2,5.2,0,0,0-3.006.783,2.854,2.854,0,0,0-1.26,2.2h2.448a1.217,1.217,0,0,1,.54-.828,2.007,2.007,0,0,1,1.152-.306,1.98,1.98,0,0,1,1.26.369,1.2,1.2,0,0,1,.468,1v.45h-1.836a5.28,5.28,0,0,0-3.159.8A2.658,2.658,0,0,0,133.47-2.61,2.365,2.365,0,0,0,134.415-.6a4.043,4.043,0,0,0,2.493.711,3.59,3.59,0,0,0,1.782-.414,3.5,3.5,0,0,0,1.242-1.206Q139.9,0,141.642,0h1.3ZM139.554-4v.18A2.1,2.1,0,0,1,138.96-2.3a2.135,2.135,0,0,1-1.566.567,1.582,1.582,0,0,1-1-.288.931.931,0,0,1-.369-.774,1.031,1.031,0,0,1,.441-.891A2.093,2.093,0,0,1,137.7-4Zm6.7-8.7a1.432,1.432,0,0,0-1.044-.4,1.463,1.463,0,0,0-1.053.4,1.349,1.349,0,0,0-.423,1.017,1.378,1.378,0,0,0,.423,1.026,1.446,1.446,0,0,0,1.053.414,1.415,1.415,0,0,0,1.044-.414,1.393,1.393,0,0,0,.414-1.026A1.364,1.364,0,0,0,146.25-12.7Zm-2.322,3.447V0h2.538V-9.252Zm4.3-3.348V0h2.538V-12.6ZM161.64-2.142h-.288a.672.672,0,0,1-.45-.126.606.606,0,0,1-.144-.468V-5.994a3.027,3.027,0,0,0-1.071-2.5,4.718,4.718,0,0,0-3.033-.864,5.2,5.2,0,0,0-3.006.783,2.854,2.854,0,0,0-1.26,2.2h2.448a1.217,1.217,0,0,1,.54-.828,2.007,2.007,0,0,1,1.152-.306,1.98,1.98,0,0,1,1.26.369,1.2,1.2,0,0,1,.468,1v.45H156.42a5.28,5.28,0,0,0-3.159.8,2.658,2.658,0,0,0-1.089,2.277A2.365,2.365,0,0,0,153.117-.6a4.043,4.043,0,0,0,2.493.711,3.59,3.59,0,0,0,1.782-.414,3.5,3.5,0,0,0,1.242-1.206Q158.6,0,160.344,0h1.3ZM158.256-4v.18a2.1,2.1,0,0,1-.594,1.521,2.135,2.135,0,0,1-1.566.567,1.582,1.582,0,0,1-1-.288.931.931,0,0,1-.369-.774,1.031,1.031,0,0,1,.441-.891A2.093,2.093,0,0,1,156.4-4Zm11.916-4.8a4.312,4.312,0,0,0-2.214-.567,3.451,3.451,0,0,0-2.79,1.278V-12.6H162.63V0h2.214l.252-1.26a3.373,3.373,0,0,0,1.188,1,3.664,3.664,0,0,0,1.692.369,4.127,4.127,0,0,0,2.2-.594,4.076,4.076,0,0,0,1.521-1.674,5.408,5.408,0,0,0,.549-2.484,5.435,5.435,0,0,0-.549-2.511A3.907,3.907,0,0,0,170.172-8.793ZM169.038-2.7a2.071,2.071,0,0,1-1.656.738,2.019,2.019,0,0,1-1.638-.738,2.947,2.947,0,0,1-.612-1.944,2.882,2.882,0,0,1,.612-1.917,2.03,2.03,0,0,1,1.638-.729,2.071,2.071,0,0,1,1.656.738,2.863,2.863,0,0,1,.63,1.926A2.863,2.863,0,0,1,169.038-2.7Zm4.608-9.9V0h2.538V-12.6Zm4.527,5.481a5.158,5.158,0,0,0-.585,2.511,5,5,0,0,0,.6,2.493,4.055,4.055,0,0,0,1.728,1.647,5.8,5.8,0,0,0,2.673.576A4.981,4.981,0,0,0,184.7-.315a3.807,3.807,0,0,0,1.476-1.161,3.64,3.64,0,0,0,.7-1.656h-2.5a1.573,1.573,0,0,1-.675.981,2.318,2.318,0,0,1-1.287.333,2.031,2.031,0,0,1-1.53-.576,2.519,2.519,0,0,1-.648-1.584V-4.05h6.714a4.65,4.65,0,0,0,.072-.864,4.58,4.58,0,0,0-.621-2.349,4.091,4.091,0,0,0-1.674-1.548,5.352,5.352,0,0,0-2.475-.549,4.939,4.939,0,0,0-2.439.585A4.106,4.106,0,0,0,178.173-7.119Zm6.309,1.413h-4.194a1.951,1.951,0,0,1,.675-1.287,2.093,2.093,0,0,1,1.4-.477,2.2,2.2,0,0,1,1.431.459A1.98,1.98,0,0,1,184.482-5.706Z" transform="translate(416 3484)" fill="#fff"/>
        <path id="Path_66891" data-name="Path 66891" d="M.4-12.6v2.322H4.032V0h2.7V-10.278h3.636V-12.6Zm9.855,5.481a5.158,5.158,0,0,0-.585,2.511,5,5,0,0,0,.6,2.493A4.055,4.055,0,0,0,12-.468,5.8,5.8,0,0,0,14.67.108a4.981,4.981,0,0,0,2.106-.423,3.807,3.807,0,0,0,1.476-1.161,3.64,3.64,0,0,0,.7-1.656h-2.5a1.573,1.573,0,0,1-.675.981,2.318,2.318,0,0,1-1.287.333,2.031,2.031,0,0,1-1.53-.576,2.519,2.519,0,0,1-.648-1.584V-4.05h6.714a4.65,4.65,0,0,0,.072-.864,4.58,4.58,0,0,0-.621-2.349A4.091,4.091,0,0,0,16.8-8.811a5.352,5.352,0,0,0-2.475-.549,4.939,4.939,0,0,0-2.439.585A4.106,4.106,0,0,0,10.251-7.119ZM16.56-5.706H12.366a1.951,1.951,0,0,1,.675-1.287,2.093,2.093,0,0,1,1.395-.477,2.2,2.2,0,0,1,1.431.459A1.979,1.979,0,0,1,16.56-5.706Zm11.9-2.646A3.678,3.678,0,0,0,25.794-9.36a3.848,3.848,0,0,0-1.692.333,3.442,3.442,0,0,0-1.17.927L22.7-9.252H20.484V0h2.538V-4.734a2.9,2.9,0,0,1,.54-1.872,1.857,1.857,0,0,1,1.53-.666q1.872,0,1.872,2.394V0H29.5V-5.022A4.483,4.483,0,0,0,28.458-8.352Zm11.754,6.21h-.288a.672.672,0,0,1-.45-.126.606.606,0,0,1-.144-.468V-5.994a3.027,3.027,0,0,0-1.071-2.5,4.718,4.718,0,0,0-3.033-.864,5.2,5.2,0,0,0-3.006.783,2.854,2.854,0,0,0-1.26,2.2h2.448a1.217,1.217,0,0,1,.54-.828A2.007,2.007,0,0,1,35.1-7.506a1.98,1.98,0,0,1,1.26.369,1.2,1.2,0,0,1,.468,1v.45H34.992a5.28,5.28,0,0,0-3.159.8A2.658,2.658,0,0,0,30.744-2.61,2.365,2.365,0,0,0,31.689-.6a4.043,4.043,0,0,0,2.493.711,3.59,3.59,0,0,0,1.782-.414,3.5,3.5,0,0,0,1.242-1.206Q37.17,0,38.916,0h1.3ZM36.828-4v.18A2.1,2.1,0,0,1,36.234-2.3a2.135,2.135,0,0,1-1.566.567,1.582,1.582,0,0,1-1-.288A.931.931,0,0,1,33.3-2.79a1.031,1.031,0,0,1,.441-.891A2.093,2.093,0,0,1,34.974-4ZM49.176-8.352A3.678,3.678,0,0,0,46.512-9.36a3.848,3.848,0,0,0-1.692.333,3.442,3.442,0,0,0-1.17.927l-.234-1.152H41.2V0H43.74V-4.734a2.9,2.9,0,0,1,.54-1.872,1.857,1.857,0,0,1,1.53-.666q1.872,0,1.872,2.394V0H50.22V-5.022A4.483,4.483,0,0,0,49.176-8.352Zm3.24,1.242v4.464A2.339,2.339,0,0,0,55.062,0h2.106V-2.142H55.854a.931.931,0,0,1-.693-.216.992.992,0,0,1-.207-.7V-7.11H57.06V-9.252H54.954v-2.592H52.416v2.592h-1.53V-7.11ZM62.892-12.6V0h2.7V-5.112H70.2V-7.326H65.592v-2.952h5.616V-12.6Zm11.916-.1a1.432,1.432,0,0,0-1.044-.4,1.463,1.463,0,0,0-1.053.4,1.349,1.349,0,0,0-.423,1.017,1.378,1.378,0,0,0,.423,1.026,1.446,1.446,0,0,0,1.053.414,1.415,1.415,0,0,0,1.044-.414,1.393,1.393,0,0,0,.414-1.026A1.364,1.364,0,0,0,74.808-12.7ZM72.486-9.252V0h2.538V-9.252Zm4.9,2.142v4.464A2.339,2.339,0,0,0,80.028,0h2.106V-2.142H80.82a.931.931,0,0,1-.693-.216.992.992,0,0,1-.207-.7V-7.11h2.106V-9.252H79.92v-2.592H77.382v2.592h-1.53V-7.11ZM85-.477A5.41,5.41,0,0,0,87.57.108a5.41,5.41,0,0,0,2.565-.585,4.136,4.136,0,0,0,1.71-1.656,5,5,0,0,0,.6-2.493,5.009,5.009,0,0,0-.6-2.484,4.121,4.121,0,0,0-1.71-1.665A5.41,5.41,0,0,0,87.57-9.36,5.41,5.41,0,0,0,85-8.775a4.121,4.121,0,0,0-1.71,1.665,5.009,5.009,0,0,0-.6,2.484,5.009,5.009,0,0,0,.6,2.484A4.121,4.121,0,0,0,85-.477ZM89.253-2.7a2.085,2.085,0,0,1-1.683.738A2.065,2.065,0,0,1,85.9-2.7a2.89,2.89,0,0,1-.621-1.926A2.89,2.89,0,0,1,85.9-6.552,2.065,2.065,0,0,1,87.57-7.29a2.085,2.085,0,0,1,1.683.738,2.89,2.89,0,0,1,.621,1.926A2.89,2.89,0,0,1,89.253-2.7Zm13.311-6.552h-2.538V-4.7A3.308,3.308,0,0,1,99.5-2.709,1.723,1.723,0,0,1,98.028-2a1.537,1.537,0,0,1-1.359-.639,3.351,3.351,0,0,1-.441-1.9V-9.252H93.69V-4.23A4.529,4.529,0,0,0,94.716-.891a3.634,3.634,0,0,0,2.646,1,3.516,3.516,0,0,0,1.584-.324,3.552,3.552,0,0,0,1.134-.9L100.314,0h2.25Zm2.43,2.142v4.464A2.339,2.339,0,0,0,107.64,0h2.106V-2.142h-1.314a.931.931,0,0,1-.693-.216.992.992,0,0,1-.207-.7V-7.11h2.106V-9.252h-2.106v-2.592h-2.538v2.592h-1.53V-7.11Z" transform="translate(416 3517)" fill="#fff"/>
      </g>
      <line id="Line_69" data-name="Line 69" y2="43" transform="translate(689 3416)" fill="none" stroke="#fff" stroke-width="1.5"/>
    </g>
    <g id="Group_66344" data-name="Group 66344" transform="translate(-72 -112)">
      <g id="Group_66341" data-name="Group 66341" transform="translate(532)">
        <rect id="Rectangle_458-2" data-name="Rectangle 458" width="97" height="36" transform="translate(406 3415)" fill="#28a96b"/>
        <path id="Path_66894" data-name="Path 66894" d="M13.536-2.286H12.294a.914.914,0,0,1-.414-.09A6.6,6.6,0,0,0,13.068-6.3a6.8,6.8,0,0,0-.792-3.285,5.78,5.78,0,0,0-2.214-2.295,6.319,6.319,0,0,0-3.24-.828,6.319,6.319,0,0,0-3.24.828A5.78,5.78,0,0,0,1.368-9.585,6.8,6.8,0,0,0,.576-6.3a6.8,6.8,0,0,0,.792,3.285A5.78,5.78,0,0,0,3.582-.72a6.319,6.319,0,0,0,3.24.828,6.281,6.281,0,0,0,3.456-.954,2.227,2.227,0,0,0,.783.648A2.842,2.842,0,0,0,12.24,0h1.3ZM3.762-4.176A5.013,5.013,0,0,1,3.33-6.3a5.013,5.013,0,0,1,.432-2.124A3.471,3.471,0,0,1,4.986-9.891a3.219,3.219,0,0,1,1.836-.531,3.188,3.188,0,0,1,1.818.531A3.471,3.471,0,0,1,9.864-8.424,5.013,5.013,0,0,1,10.3-6.3a5.132,5.132,0,0,1-.288,1.764L9.72-4.914a2.694,2.694,0,0,0-.756-.7,2.25,2.25,0,0,0-1.1-.216H6.5v2.286h1.17a.842.842,0,0,1,.486.135,1.853,1.853,0,0,1,.414.423l.18.216a3.27,3.27,0,0,1-1.926.594,3.219,3.219,0,0,1-1.836-.531A3.471,3.471,0,0,1,3.762-4.176ZM14.13-4.842V-2.7h6.228V0H22.9V-2.7h1.746V-4.86H22.9V-12.6h-3.2ZM16.6-4.86l3.762-5.22v5.22Zm18.216-1.1L30.042-2V0h9.234V-2.178h-5.49l2.826-2.3a9.868,9.868,0,0,0,1.971-2.025,3.9,3.9,0,0,0,.639-2.241,3.684,3.684,0,0,0-1.215-2.9,4.99,4.99,0,0,0-3.429-1.08,5.107,5.107,0,0,0-2.412.549,3.944,3.944,0,0,0-1.611,1.521,4.208,4.208,0,0,0-.567,2.16v.342H32.6v-.2a2.268,2.268,0,0,1,.549-1.6,1.858,1.858,0,0,1,1.431-.594,2.108,2.108,0,0,1,1.467.5,1.8,1.8,0,0,1,.549,1.413,2.262,2.262,0,0,1-.432,1.332A7.1,7.1,0,0,1,34.812-5.958Zm5.67-.63v.576a7.521,7.521,0,0,0,.657,3.267A4.944,4.944,0,0,0,42.966-.63a4.953,4.953,0,0,0,2.7.738A5,5,0,0,0,48.375-.63a4.922,4.922,0,0,0,1.836-2.115,7.521,7.521,0,0,0,.657-3.267v-.576a7.49,7.49,0,0,0-.657-3.24,4.973,4.973,0,0,0-1.836-2.133,4.953,4.953,0,0,0-2.709-.747,4.92,4.92,0,0,0-2.691.747,4.973,4.973,0,0,0-1.836,2.133A7.49,7.49,0,0,0,40.482-6.588Zm7.083-2.871A5.256,5.256,0,0,1,48.276-6.5v.4a5.256,5.256,0,0,1-.711,2.961,2.189,2.189,0,0,1-1.9,1.053,2.174,2.174,0,0,1-1.881-1.053A5.256,5.256,0,0,1,43.074-6.1v-.4a5.256,5.256,0,0,1,.711-2.961,2.174,2.174,0,0,1,1.881-1.053A2.189,2.189,0,0,1,47.565-9.459Zm9.243,3.5L52.038-2V0h9.234V-2.178h-5.49l2.826-2.3a9.868,9.868,0,0,0,1.971-2.025,3.9,3.9,0,0,0,.639-2.241A3.684,3.684,0,0,0,60-11.646a4.99,4.99,0,0,0-3.429-1.08,5.107,5.107,0,0,0-2.412.549,3.944,3.944,0,0,0-1.611,1.521,4.208,4.208,0,0,0-.567,2.16v.342h2.61v-.2a2.268,2.268,0,0,1,.549-1.6,1.858,1.858,0,0,1,1.431-.594,2.108,2.108,0,0,1,1.467.5A1.8,1.8,0,0,1,58.59-8.64a2.262,2.262,0,0,1-.432,1.332A7.1,7.1,0,0,1,56.808-5.958ZM61.974-12.6v2.2h6.39L62.856,0h2.808l5.544-10.926V-12.6Z" transform="translate(416 3440)" fill="#fff"/>
        <path id="Path_66893" data-name="Path 66893" d="M6.21-12.6H1.08V0h2.7V-4.23H6.21A5.3,5.3,0,0,0,8.6-4.743,3.776,3.776,0,0,0,10.2-6.2a4.2,4.2,0,0,0,.567-2.2A4.251,4.251,0,0,0,10.2-10.62a3.759,3.759,0,0,0-1.6-1.467A5.3,5.3,0,0,0,6.21-12.6ZM3.78-6.48v-3.87H5.958a2.125,2.125,0,0,1,1.512.522,1.853,1.853,0,0,1,.558,1.422A1.83,1.83,0,0,1,7.47-7a2.125,2.125,0,0,1-1.512.522ZM17.712-9.252H17.28a3.286,3.286,0,0,0-1.638.351,2.875,2.875,0,0,0-1.026,1.035l-.234-1.386h-2.3V0h2.538V-4.536a2.8,2.8,0,0,1,.5-1.764A1.882,1.882,0,0,1,16.7-6.948h1.008Zm9.972,7.11H27.4a.672.672,0,0,1-.45-.126.606.606,0,0,1-.144-.468V-5.994a3.027,3.027,0,0,0-1.071-2.5A4.718,4.718,0,0,0,22.7-9.36a5.2,5.2,0,0,0-3.006.783,2.854,2.854,0,0,0-1.26,2.2H20.88a1.217,1.217,0,0,1,.54-.828,2.007,2.007,0,0,1,1.152-.306,1.98,1.98,0,0,1,1.26.369,1.2,1.2,0,0,1,.468,1v.45H22.464a5.28,5.28,0,0,0-3.159.8A2.658,2.658,0,0,0,18.216-2.61,2.365,2.365,0,0,0,19.161-.6a4.043,4.043,0,0,0,2.493.711,3.59,3.59,0,0,0,1.782-.414,3.5,3.5,0,0,0,1.242-1.206Q24.642,0,26.388,0h1.3ZM24.3-4v.18A2.1,2.1,0,0,1,23.706-2.3a2.135,2.135,0,0,1-1.566.567,1.582,1.582,0,0,1-1-.288.931.931,0,0,1-.369-.774,1.031,1.031,0,0,1,.441-.891A2.093,2.093,0,0,1,22.446-4ZM36.135-.855A4.056,4.056,0,0,0,37.566-3.51h-2.61a1.912,1.912,0,0,1-.639,1.134,1.857,1.857,0,0,1-1.233.414A1.93,1.93,0,0,1,31.5-2.7a2.977,2.977,0,0,1-.594-1.926A2.977,2.977,0,0,1,31.5-6.552a1.93,1.93,0,0,1,1.584-.738,1.82,1.82,0,0,1,1.206.405A1.958,1.958,0,0,1,34.938-5.8h2.628a4.056,4.056,0,0,0-1.44-2.619A4.661,4.661,0,0,0,33.1-9.36a5.264,5.264,0,0,0-2.529.585A4.048,4.048,0,0,0,28.9-7.119a5.119,5.119,0,0,0-.585,2.493A5.133,5.133,0,0,0,28.9-2.142,4.048,4.048,0,0,0,30.564-.477a5.211,5.211,0,0,0,2.52.585A4.668,4.668,0,0,0,36.135-.855ZM39.528-7.11v4.464A2.339,2.339,0,0,0,42.174,0H44.28V-2.142H42.966a.931.931,0,0,1-.693-.216.992.992,0,0,1-.207-.7V-7.11h2.106V-9.252H42.066v-2.592H39.528v2.592H38V-7.11ZM47.664-12.7a1.432,1.432,0,0,0-1.044-.4,1.463,1.463,0,0,0-1.053.4,1.349,1.349,0,0,0-.423,1.017,1.378,1.378,0,0,0,.423,1.026,1.446,1.446,0,0,0,1.053.414,1.415,1.415,0,0,0,1.044-.414,1.393,1.393,0,0,0,.414-1.026A1.364,1.364,0,0,0,47.664-12.7ZM45.342-9.252V0H47.88V-9.252ZM57.1-.855A4.056,4.056,0,0,0,58.536-3.51h-2.61a1.912,1.912,0,0,1-.639,1.134,1.857,1.857,0,0,1-1.233.414A1.93,1.93,0,0,1,52.47-2.7a2.977,2.977,0,0,1-.594-1.926,2.977,2.977,0,0,1,.594-1.926,1.93,1.93,0,0,1,1.584-.738,1.82,1.82,0,0,1,1.206.405A1.958,1.958,0,0,1,55.908-5.8h2.628A4.056,4.056,0,0,0,57.1-8.415a4.661,4.661,0,0,0-3.024-.945,5.264,5.264,0,0,0-2.529.585,4.048,4.048,0,0,0-1.674,1.656,5.119,5.119,0,0,0-.585,2.493,5.133,5.133,0,0,0,.585,2.484A4.048,4.048,0,0,0,51.534-.477a5.211,5.211,0,0,0,2.52.585A4.668,4.668,0,0,0,57.1-.855ZM69.012-2.142h-.288a.672.672,0,0,1-.45-.126.606.606,0,0,1-.144-.468V-5.994a3.027,3.027,0,0,0-1.071-2.5,4.718,4.718,0,0,0-3.033-.864,5.2,5.2,0,0,0-3.006.783,2.854,2.854,0,0,0-1.26,2.2h2.448a1.217,1.217,0,0,1,.54-.828A2.007,2.007,0,0,1,63.9-7.506a1.98,1.98,0,0,1,1.26.369,1.2,1.2,0,0,1,.468,1v.45H63.792a5.28,5.28,0,0,0-3.159.8A2.658,2.658,0,0,0,59.544-2.61,2.365,2.365,0,0,0,60.489-.6a4.043,4.043,0,0,0,2.493.711,3.59,3.59,0,0,0,1.782-.414,3.5,3.5,0,0,0,1.242-1.206Q65.97,0,67.716,0h1.3ZM65.628-4v.18A2.1,2.1,0,0,1,65.034-2.3a2.135,2.135,0,0,1-1.566.567,1.582,1.582,0,0,1-1-.288A.931.931,0,0,1,62.1-2.79a1.031,1.031,0,0,1,.441-.891A2.093,2.093,0,0,1,63.774-4ZM70-12.6V0H72.54V-12.6Zm9.207,2.925A7.267,7.267,0,0,0,78.462-6.3a7.267,7.267,0,0,0,.747,3.375A5.325,5.325,0,0,0,81.351-.684a6.543,6.543,0,0,0,3.285.792,5.912,5.912,0,0,0,2.646-.576,4.861,4.861,0,0,0,1.89-1.62A5.117,5.117,0,0,0,90.036-4.5h-2.7a2.942,2.942,0,0,1-.981,1.7,2.816,2.816,0,0,1-1.863.621A2.863,2.863,0,0,1,82.1-3.321,4.741,4.741,0,0,1,81.216-6.3,4.732,4.732,0,0,1,82.1-9.288a2.872,2.872,0,0,1,2.394-1.134,2.816,2.816,0,0,1,1.863.621,2.942,2.942,0,0,1,.981,1.7h2.7a5.117,5.117,0,0,0-.864-2.412,4.861,4.861,0,0,0-1.89-1.62,5.912,5.912,0,0,0-2.646-.576,6.543,6.543,0,0,0-3.285.792A5.325,5.325,0,0,0,79.209-9.675Zm14.148,9.2a5.41,5.41,0,0,0,2.565.585,5.41,5.41,0,0,0,2.565-.585,4.136,4.136,0,0,0,1.71-1.656,5,5,0,0,0,.6-2.493,5.009,5.009,0,0,0-.6-2.484,4.121,4.121,0,0,0-1.71-1.665,5.41,5.41,0,0,0-2.565-.585,5.41,5.41,0,0,0-2.565.585,4.121,4.121,0,0,0-1.71,1.665,5.009,5.009,0,0,0-.6,2.484,5.009,5.009,0,0,0,.6,2.484A4.121,4.121,0,0,0,93.357-.477ZM97.605-2.7a2.085,2.085,0,0,1-1.683.738A2.065,2.065,0,0,1,94.257-2.7a2.89,2.89,0,0,1-.621-1.926,2.89,2.89,0,0,1,.621-1.926,2.065,2.065,0,0,1,1.665-.738,2.085,2.085,0,0,1,1.683.738,2.89,2.89,0,0,1,.621,1.926A2.89,2.89,0,0,1,97.605-2.7Zm18.153-5.67a3.192,3.192,0,0,0-2.43-.99,4.148,4.148,0,0,0-1.863.4,3.344,3.344,0,0,0-1.323,1.161,2.8,2.8,0,0,0-2.754-1.566,3.766,3.766,0,0,0-1.62.342,3.274,3.274,0,0,0-1.116.918l-.234-1.152H102.2V.018h2.538V-5.04a2.49,2.49,0,0,1,.5-1.629,1.624,1.624,0,0,1,1.323-.6q1.62,0,1.62,2.106V.018h2.538V-5.058a2.417,2.417,0,0,1,.5-1.629,1.672,1.672,0,0,1,1.332-.585q1.6,0,1.6,2.106V.018h2.538V-5.076A4.718,4.718,0,0,0,115.758-8.37Zm10.089-.405a4.162,4.162,0,0,0-2.205-.585,3.6,3.6,0,0,0-1.683.378,3.438,3.438,0,0,0-1.2,1.008l-.252-1.278H118.3V3.6h2.538V-1.17a3.356,3.356,0,0,0,2.79,1.278,4.209,4.209,0,0,0,2.214-.585,4.04,4.04,0,0,0,1.521-1.647,5.338,5.338,0,0,0,.549-2.484,5.449,5.449,0,0,0-.549-2.5A4.035,4.035,0,0,0,125.847-8.775ZM124.7-2.709a2.061,2.061,0,0,1-1.656.747A2.019,2.019,0,0,1,121.41-2.7a2.947,2.947,0,0,1-.612-1.944,2.882,2.882,0,0,1,.612-1.917,2.03,2.03,0,0,1,1.638-.729,2.083,2.083,0,0,1,1.656.729,2.828,2.828,0,0,1,.63,1.917A2.9,2.9,0,0,1,124.7-2.709Zm4.608-9.891V0h2.538V-12.6Zm4.527,5.481a5.158,5.158,0,0,0-.585,2.511,5,5,0,0,0,.6,2.493,4.055,4.055,0,0,0,1.728,1.647,5.8,5.8,0,0,0,2.673.576,4.981,4.981,0,0,0,2.106-.423,3.807,3.807,0,0,0,1.476-1.161,3.64,3.64,0,0,0,.7-1.656h-2.5a1.573,1.573,0,0,1-.675.981,2.318,2.318,0,0,1-1.287.333,2.031,2.031,0,0,1-1.53-.576,2.519,2.519,0,0,1-.648-1.584V-4.05h6.714a4.651,4.651,0,0,0,.072-.864,4.58,4.58,0,0,0-.621-2.349,4.091,4.091,0,0,0-1.674-1.548,5.352,5.352,0,0,0-2.475-.549,4.939,4.939,0,0,0-2.439.585A4.106,4.106,0,0,0,133.839-7.119Zm6.309,1.413h-4.194a1.951,1.951,0,0,1,.675-1.287,2.093,2.093,0,0,1,1.395-.477,2.2,2.2,0,0,1,1.431.459A1.979,1.979,0,0,1,140.148-5.706Zm4.482-1.4v4.464A2.339,2.339,0,0,0,147.276,0h2.106V-2.142h-1.314a.931.931,0,0,1-.693-.216.992.992,0,0,1-.207-.7V-7.11h2.106V-9.252h-2.106v-2.592H144.63v2.592H143.1V-7.11Zm8.136-5.589a1.432,1.432,0,0,0-1.044-.4,1.463,1.463,0,0,0-1.053.4,1.349,1.349,0,0,0-.423,1.017,1.378,1.378,0,0,0,.423,1.026,1.446,1.446,0,0,0,1.053.414,1.415,1.415,0,0,0,1.044-.414,1.393,1.393,0,0,0,.414-1.026A1.364,1.364,0,0,0,152.766-12.7Zm-2.322,3.447V0h2.538V-9.252ZM156.7-.477a5.41,5.41,0,0,0,2.565.585,5.41,5.41,0,0,0,2.565-.585,4.136,4.136,0,0,0,1.71-1.656,5,5,0,0,0,.6-2.493,5.009,5.009,0,0,0-.6-2.484,4.121,4.121,0,0,0-1.71-1.665,5.41,5.41,0,0,0-2.565-.585,5.41,5.41,0,0,0-2.565.585,4.121,4.121,0,0,0-1.71,1.665,5.009,5.009,0,0,0-.6,2.484,5.009,5.009,0,0,0,.6,2.484A4.121,4.121,0,0,0,156.7-.477ZM160.947-2.7a2.085,2.085,0,0,1-1.683.738A2.065,2.065,0,0,1,157.6-2.7a2.89,2.89,0,0,1-.621-1.926,2.89,2.89,0,0,1,.621-1.926,2.065,2.065,0,0,1,1.665-.738,2.085,2.085,0,0,1,1.683.738,2.89,2.89,0,0,1,.621,1.926A2.89,2.89,0,0,1,160.947-2.7ZM173.52-8.352a3.678,3.678,0,0,0-2.664-1.008,3.848,3.848,0,0,0-1.692.333,3.443,3.443,0,0,0-1.17.927l-.234-1.152h-2.214V0h2.538V-4.734a2.9,2.9,0,0,1,.54-1.872,1.857,1.857,0,0,1,1.53-.666q1.872,0,1.872,2.394V0h2.538V-5.022A4.483,4.483,0,0,0,173.52-8.352Z" transform="translate(416 3473)" fill="#fff"/>
      </g>
      <line id="Line_73" data-name="Line 73" y2="43" transform="translate(951 3485)" fill="none" stroke="#fff" stroke-width="1.5"/>
    </g>
    <g id="Group_66349" data-name="Group 66349" transform="translate(123)">
      <g id="Group_66337" data-name="Group 66337">
        <rect id="Rectangle_15" data-name="Rectangle 15" width="96" height="36" transform="translate(228 3304)" fill="#28a96b"/>
        <path id="Path_66888" data-name="Path 66888" d="M6.066-12.6h-2.7v8.73a1.667,1.667,0,0,1-.342,1.161A1.489,1.489,0,0,1,1.89-2.34H.4V0H2.718A3.327,3.327,0,0,0,5.193-.882a3.354,3.354,0,0,0,.873-2.466ZM17.136-2.142h-.288a.672.672,0,0,1-.45-.126.606.606,0,0,1-.144-.468V-5.994a3.027,3.027,0,0,0-1.071-2.5A4.718,4.718,0,0,0,12.15-9.36a5.2,5.2,0,0,0-3.006.783,2.854,2.854,0,0,0-1.26,2.2h2.448a1.217,1.217,0,0,1,.54-.828,2.007,2.007,0,0,1,1.152-.306,1.98,1.98,0,0,1,1.26.369,1.2,1.2,0,0,1,.468,1v.45H11.916a5.28,5.28,0,0,0-3.159.8A2.658,2.658,0,0,0,7.668-2.61,2.365,2.365,0,0,0,8.613-.6a4.043,4.043,0,0,0,2.493.711,3.59,3.59,0,0,0,1.782-.414A3.5,3.5,0,0,0,14.13-1.512Q14.094,0,15.84,0h1.3ZM13.752-4v.18A2.1,2.1,0,0,1,13.158-2.3a2.135,2.135,0,0,1-1.566.567,1.582,1.582,0,0,1-1-.288.931.931,0,0,1-.369-.774,1.031,1.031,0,0,1,.441-.891A2.093,2.093,0,0,1,11.9-4ZM26.1-8.352A3.678,3.678,0,0,0,23.436-9.36a3.848,3.848,0,0,0-1.692.333,3.442,3.442,0,0,0-1.17.927L20.34-9.252H18.126V0h2.538V-4.734a2.9,2.9,0,0,1,.54-1.872,1.857,1.857,0,0,1,1.53-.666q1.872,0,1.872,2.394V0h2.538V-5.022A4.483,4.483,0,0,0,26.1-8.352ZM37.656-5.958,32.886-2V0H42.12V-2.178H36.63l2.826-2.3a9.868,9.868,0,0,0,1.971-2.025,3.9,3.9,0,0,0,.639-2.241,3.684,3.684,0,0,0-1.215-2.9,4.99,4.99,0,0,0-3.429-1.08,5.107,5.107,0,0,0-2.412.549A3.944,3.944,0,0,0,33.4-10.656a4.208,4.208,0,0,0-.567,2.16v.342h2.61v-.2a2.268,2.268,0,0,1,.549-1.6,1.858,1.858,0,0,1,1.431-.594,2.108,2.108,0,0,1,1.467.5,1.8,1.8,0,0,1,.549,1.413,2.262,2.262,0,0,1-.432,1.332A7.1,7.1,0,0,1,37.656-5.958Zm5.67-.63v.576a7.521,7.521,0,0,0,.657,3.267A4.944,4.944,0,0,0,45.81-.63a4.953,4.953,0,0,0,2.7.738A5,5,0,0,0,51.219-.63a4.922,4.922,0,0,0,1.836-2.115,7.521,7.521,0,0,0,.657-3.267v-.576a7.49,7.49,0,0,0-.657-3.24,4.973,4.973,0,0,0-1.836-2.133,4.953,4.953,0,0,0-2.709-.747,4.92,4.92,0,0,0-2.691.747,4.973,4.973,0,0,0-1.836,2.133A7.49,7.49,0,0,0,43.326-6.588Zm7.083-2.871A5.256,5.256,0,0,1,51.12-6.5v.4a5.256,5.256,0,0,1-.711,2.961,2.189,2.189,0,0,1-1.9,1.053,2.174,2.174,0,0,1-1.881-1.053A5.256,5.256,0,0,1,45.918-6.1v-.4a5.256,5.256,0,0,1,.711-2.961,2.174,2.174,0,0,1,1.881-1.053A2.189,2.189,0,0,1,50.409-9.459Zm9.243,3.5L54.882-2V0h9.234V-2.178h-5.49l2.826-2.3a9.868,9.868,0,0,0,1.971-2.025,3.9,3.9,0,0,0,.639-2.241,3.684,3.684,0,0,0-1.215-2.9,4.99,4.99,0,0,0-3.429-1.08,5.107,5.107,0,0,0-2.412.549A3.944,3.944,0,0,0,55.4-10.656a4.208,4.208,0,0,0-.567,2.16v.342h2.61v-.2a2.268,2.268,0,0,1,.549-1.6,1.858,1.858,0,0,1,1.431-.594,2.108,2.108,0,0,1,1.467.5,1.8,1.8,0,0,1,.549,1.413A2.262,2.262,0,0,1,61-7.308,7.1,7.1,0,0,1,59.652-5.958ZM65.619-3.78a6.177,6.177,0,0,0,.855,1.908A4.5,4.5,0,0,0,68.157-.405,5.065,5.065,0,0,0,70.47.108a5.461,5.461,0,0,0,2.457-.531,3.909,3.909,0,0,0,1.656-1.5,4.278,4.278,0,0,0,.585-2.25,4.468,4.468,0,0,0-.54-2.223,3.851,3.851,0,0,0-1.5-1.5,4.468,4.468,0,0,0-2.223-.54,3.793,3.793,0,0,0-1.737.4,3.134,3.134,0,0,0-1.233,1.08l-.162.27V-7a4.68,4.68,0,0,1,.657-2.691,2.153,2.153,0,0,1,1.881-.945,2.292,2.292,0,0,1,1.4.414,1.966,1.966,0,0,1,.738,1.17h2.556a3.921,3.921,0,0,0-1.458-2.682,4.727,4.727,0,0,0-3.042-.99,4.918,4.918,0,0,0-2.754.765,4.871,4.871,0,0,0-1.8,2.241,9.008,9.008,0,0,0-.63,3.546A9.148,9.148,0,0,0,65.619-3.78Zm6.4-2.016a2.308,2.308,0,0,1,.576,1.62A2.274,2.274,0,0,1,72-2.565a2.016,2.016,0,0,1-1.548.639,2,2,0,0,1-1.539-.63,2.286,2.286,0,0,1-.585-1.62,2.247,2.247,0,0,1,.6-1.62,2.059,2.059,0,0,1,1.557-.63A1.973,1.973,0,0,1,72.018-5.8Z" transform="translate(238 3328)" fill="#fff"/>
        <path id="Path_66887" data-name="Path 66887" d="M1.323-9.675A7.268,7.268,0,0,0,.576-6.3a7.268,7.268,0,0,0,.747,3.375A5.325,5.325,0,0,0,3.465-.684,6.543,6.543,0,0,0,6.75.108,5.912,5.912,0,0,0,9.4-.468a4.861,4.861,0,0,0,1.89-1.62A5.117,5.117,0,0,0,12.15-4.5H9.45a2.942,2.942,0,0,1-.981,1.7,2.816,2.816,0,0,1-1.863.621A2.863,2.863,0,0,1,4.212-3.321,4.741,4.741,0,0,1,3.33-6.3a4.732,4.732,0,0,1,.882-2.988,2.872,2.872,0,0,1,2.394-1.134A2.816,2.816,0,0,1,8.469-9.8,2.942,2.942,0,0,1,9.45-8.1h2.7a5.117,5.117,0,0,0-.864-2.412,4.861,4.861,0,0,0-1.89-1.62,5.912,5.912,0,0,0-2.646-.576,6.543,6.543,0,0,0-3.285.792A5.325,5.325,0,0,0,1.323-9.675Zm14.148,9.2a5.41,5.41,0,0,0,2.565.585A5.41,5.41,0,0,0,20.6-.477a4.136,4.136,0,0,0,1.71-1.656,5,5,0,0,0,.6-2.493,5.009,5.009,0,0,0-.6-2.484A4.121,4.121,0,0,0,20.6-8.775a5.41,5.41,0,0,0-2.565-.585,5.41,5.41,0,0,0-2.565.585,4.121,4.121,0,0,0-1.71,1.665,5.009,5.009,0,0,0-.6,2.484,5.009,5.009,0,0,0,.6,2.484A4.121,4.121,0,0,0,15.471-.477ZM19.719-2.7a2.085,2.085,0,0,1-1.683.738A2.065,2.065,0,0,1,16.371-2.7a2.89,2.89,0,0,1-.621-1.926,2.89,2.89,0,0,1,.621-1.926,2.065,2.065,0,0,1,1.665-.738,2.085,2.085,0,0,1,1.683.738,2.89,2.89,0,0,1,.621,1.926A2.89,2.89,0,0,1,19.719-2.7ZM32.292-8.352A3.678,3.678,0,0,0,29.628-9.36a3.848,3.848,0,0,0-1.692.333,3.442,3.442,0,0,0-1.17.927l-.234-1.152H24.318V0h2.538V-4.734a2.9,2.9,0,0,1,.54-1.872,1.857,1.857,0,0,1,1.53-.666q1.872,0,1.872,2.394V0h2.538V-5.022A4.483,4.483,0,0,0,32.292-8.352Zm4.716,5.274H34.6A2.9,2.9,0,0,0,35.874-.747a5.3,5.3,0,0,0,3.132.855,5.987,5.987,0,0,0,2.187-.369,3.364,3.364,0,0,0,1.476-1.053A2.51,2.51,0,0,0,43.2-2.9a2.134,2.134,0,0,0-1-2.007,7.488,7.488,0,0,0-2.871-.8q-.882-.09-1.26-.162a1.592,1.592,0,0,1-.612-.234.552.552,0,0,1-.234-.486.816.816,0,0,1,.441-.72,2.2,2.2,0,0,1,1.161-.27,2.229,2.229,0,0,1,1.269.333,1.149,1.149,0,0,1,.549.855h2.412a2.743,2.743,0,0,0-1.251-2.2,5.412,5.412,0,0,0-3.051-.81,5.308,5.308,0,0,0-2.07.378,3.173,3.173,0,0,0-1.395,1.071,2.671,2.671,0,0,0-.5,1.593,2.071,2.071,0,0,0,.486,1.44,2.829,2.829,0,0,0,1.3.792,12.527,12.527,0,0,0,2.034.414q.9.108,1.3.189a1.377,1.377,0,0,1,.612.261.663.663,0,0,1,.216.54.817.817,0,0,1-.468.747,2.635,2.635,0,0,1-1.278.261A2.363,2.363,0,0,1,37.6-2.088,1.307,1.307,0,0,1,37.008-3.078ZM45.252-7.11v4.464A2.339,2.339,0,0,0,47.9,0H50V-2.142H48.69A.931.931,0,0,1,48-2.358a.992.992,0,0,1-.207-.7V-7.11H49.9V-9.252H47.79v-2.592H45.252v2.592h-1.53V-7.11ZM56.7-9.252h-.432A3.286,3.286,0,0,0,54.63-8.9,2.875,2.875,0,0,0,53.6-7.866L53.37-9.252h-2.3V0H53.6V-4.536a2.8,2.8,0,0,1,.5-1.764,1.882,1.882,0,0,1,1.584-.648H56.7Zm9.846,0H64.008V-4.7a3.308,3.308,0,0,1-.522,1.989A1.723,1.723,0,0,1,62.01-2a1.537,1.537,0,0,1-1.359-.639,3.351,3.351,0,0,1-.441-1.9V-9.252H57.672V-4.23A4.529,4.529,0,0,0,58.7-.891a3.634,3.634,0,0,0,2.646,1,3.516,3.516,0,0,0,1.584-.324,3.552,3.552,0,0,0,1.134-.9L64.3,0h2.25Zm9.225,8.4A4.056,4.056,0,0,0,77.2-3.51h-2.61a1.912,1.912,0,0,1-.639,1.134,1.857,1.857,0,0,1-1.233.414A1.93,1.93,0,0,1,71.136-2.7a2.977,2.977,0,0,1-.594-1.926,2.977,2.977,0,0,1,.594-1.926A1.93,1.93,0,0,1,72.72-7.29a1.82,1.82,0,0,1,1.206.405A1.958,1.958,0,0,1,74.574-5.8H77.2a4.056,4.056,0,0,0-1.44-2.619,4.661,4.661,0,0,0-3.024-.945,5.264,5.264,0,0,0-2.529.585,4.048,4.048,0,0,0-1.674,1.656,5.119,5.119,0,0,0-.585,2.493,5.133,5.133,0,0,0,.585,2.484A4.048,4.048,0,0,0,70.2-.477a5.211,5.211,0,0,0,2.52.585A4.668,4.668,0,0,0,75.771-.855ZM79.164-7.11v4.464A2.339,2.339,0,0,0,81.81,0h2.106V-2.142H82.6a.931.931,0,0,1-.693-.216.992.992,0,0,1-.207-.7V-7.11h2.106V-9.252H81.7v-2.592H79.164v2.592h-1.53V-7.11ZM87.3-12.7a1.432,1.432,0,0,0-1.044-.4,1.463,1.463,0,0,0-1.053.4,1.349,1.349,0,0,0-.423,1.017,1.378,1.378,0,0,0,.423,1.026,1.446,1.446,0,0,0,1.053.414,1.415,1.415,0,0,0,1.044-.414,1.393,1.393,0,0,0,.414-1.026A1.364,1.364,0,0,0,87.3-12.7ZM84.978-9.252V0h2.538V-9.252ZM91.233-.477A5.41,5.41,0,0,0,93.8.108a5.41,5.41,0,0,0,2.565-.585,4.136,4.136,0,0,0,1.71-1.656,5,5,0,0,0,.6-2.493,5.009,5.009,0,0,0-.6-2.484,4.121,4.121,0,0,0-1.71-1.665A5.41,5.41,0,0,0,93.8-9.36a5.41,5.41,0,0,0-2.565.585,4.121,4.121,0,0,0-1.71,1.665,5.009,5.009,0,0,0-.6,2.484,5.009,5.009,0,0,0,.6,2.484A4.121,4.121,0,0,0,91.233-.477ZM95.481-2.7a2.085,2.085,0,0,1-1.683.738A2.065,2.065,0,0,1,92.133-2.7a2.89,2.89,0,0,1-.621-1.926,2.89,2.89,0,0,1,.621-1.926A2.065,2.065,0,0,1,93.8-7.29a2.085,2.085,0,0,1,1.683.738A2.89,2.89,0,0,1,96.1-4.626,2.89,2.89,0,0,1,95.481-2.7Zm12.573-5.652A3.678,3.678,0,0,0,105.39-9.36a3.848,3.848,0,0,0-1.692.333,3.442,3.442,0,0,0-1.17.927l-.234-1.152H100.08V0h2.538V-4.734a2.9,2.9,0,0,1,.54-1.872,1.857,1.857,0,0,1,1.53-.666q1.872,0,1.872,2.394V0H109.1V-5.022A4.483,4.483,0,0,0,108.054-8.352ZM115.6-9.675a7.267,7.267,0,0,0-.747,3.375,7.267,7.267,0,0,0,.747,3.375,5.325,5.325,0,0,0,2.142,2.241,6.543,6.543,0,0,0,3.285.792,5.912,5.912,0,0,0,2.646-.576,4.861,4.861,0,0,0,1.89-1.62,5.117,5.117,0,0,0,.864-2.412h-2.7a2.942,2.942,0,0,1-.981,1.7,2.816,2.816,0,0,1-1.863.621,2.863,2.863,0,0,1-2.394-1.143,4.741,4.741,0,0,1-.882-2.979,4.732,4.732,0,0,1,.882-2.988,2.872,2.872,0,0,1,2.394-1.134,2.816,2.816,0,0,1,1.863.621,2.942,2.942,0,0,1,.981,1.7h2.7a5.117,5.117,0,0,0-.864-2.412,4.861,4.861,0,0,0-1.89-1.62,5.912,5.912,0,0,0-2.646-.576,6.543,6.543,0,0,0-3.285.792A5.325,5.325,0,0,0,115.6-9.675Zm14.148,9.2a5.41,5.41,0,0,0,2.565.585,5.41,5.41,0,0,0,2.565-.585,4.136,4.136,0,0,0,1.71-1.656,5,5,0,0,0,.6-2.493,5.009,5.009,0,0,0-.6-2.484,4.121,4.121,0,0,0-1.71-1.665,5.41,5.41,0,0,0-2.565-.585,5.41,5.41,0,0,0-2.565.585,4.121,4.121,0,0,0-1.71,1.665,5.009,5.009,0,0,0-.6,2.484,5.009,5.009,0,0,0,.6,2.484A4.121,4.121,0,0,0,129.753-.477ZM134-2.7a2.085,2.085,0,0,1-1.683.738,2.065,2.065,0,0,1-1.665-.738,2.89,2.89,0,0,1-.621-1.926,2.89,2.89,0,0,1,.621-1.926,2.065,2.065,0,0,1,1.665-.738A2.085,2.085,0,0,1,134-6.552a2.89,2.89,0,0,1,.621,1.926A2.89,2.89,0,0,1,134-2.7Zm18.153-5.67a3.192,3.192,0,0,0-2.43-.99,4.148,4.148,0,0,0-1.863.4,3.344,3.344,0,0,0-1.323,1.161,2.8,2.8,0,0,0-2.754-1.566,3.766,3.766,0,0,0-1.62.342,3.274,3.274,0,0,0-1.116.918l-.234-1.152H138.6V.018h2.538V-5.04a2.491,2.491,0,0,1,.495-1.629,1.624,1.624,0,0,1,1.323-.6q1.62,0,1.62,2.106V.018h2.538V-5.058a2.417,2.417,0,0,1,.5-1.629,1.672,1.672,0,0,1,1.332-.585q1.6,0,1.6,2.106V.018h2.538V-5.076A4.719,4.719,0,0,0,152.154-8.37Zm16.092,0a3.192,3.192,0,0,0-2.43-.99,4.148,4.148,0,0,0-1.863.4,3.344,3.344,0,0,0-1.323,1.161,2.8,2.8,0,0,0-2.754-1.566,3.766,3.766,0,0,0-1.62.342,3.274,3.274,0,0,0-1.116.918l-.234-1.152h-2.214V.018h2.538V-5.04a2.491,2.491,0,0,1,.495-1.629,1.624,1.624,0,0,1,1.323-.6q1.62,0,1.62,2.106V.018h2.538V-5.058a2.417,2.417,0,0,1,.5-1.629,1.672,1.672,0,0,1,1.332-.585q1.6,0,1.6,2.106V.018h2.538V-5.076A4.719,4.719,0,0,0,168.246-8.37Zm2.763,1.251a5.158,5.158,0,0,0-.585,2.511,5,5,0,0,0,.6,2.493,4.055,4.055,0,0,0,1.728,1.647,5.8,5.8,0,0,0,2.673.576,4.981,4.981,0,0,0,2.106-.423,3.807,3.807,0,0,0,1.476-1.161,3.64,3.64,0,0,0,.7-1.656h-2.5a1.573,1.573,0,0,1-.675.981,2.318,2.318,0,0,1-1.287.333,2.031,2.031,0,0,1-1.53-.576,2.519,2.519,0,0,1-.648-1.584V-4.05h6.714a4.65,4.65,0,0,0,.072-.864,4.58,4.58,0,0,0-.621-2.349,4.091,4.091,0,0,0-1.674-1.548,5.352,5.352,0,0,0-2.475-.549,4.939,4.939,0,0,0-2.439.585A4.106,4.106,0,0,0,171.009-7.119Zm6.309,1.413h-4.194a1.951,1.951,0,0,1,.675-1.287,2.093,2.093,0,0,1,1.4-.477,2.2,2.2,0,0,1,1.431.459A1.98,1.98,0,0,1,177.318-5.706Zm11.9-2.646a3.678,3.678,0,0,0-2.664-1.008,3.848,3.848,0,0,0-1.692.333,3.443,3.443,0,0,0-1.17.927l-.234-1.152h-2.214V0h2.538V-4.734a2.9,2.9,0,0,1,.54-1.872,1.857,1.857,0,0,1,1.53-.666q1.872,0,1.872,2.394V0h2.538V-5.022A4.483,4.483,0,0,0,189.216-8.352Zm10.107,7.5a4.056,4.056,0,0,0,1.431-2.655h-2.61a1.912,1.912,0,0,1-.639,1.134,1.857,1.857,0,0,1-1.233.414,1.93,1.93,0,0,1-1.584-.738,2.977,2.977,0,0,1-.594-1.926,2.977,2.977,0,0,1,.594-1.926,1.93,1.93,0,0,1,1.584-.738,1.82,1.82,0,0,1,1.206.405,1.958,1.958,0,0,1,.648,1.089h2.628a4.057,4.057,0,0,0-1.44-2.619,4.661,4.661,0,0,0-3.024-.945,5.264,5.264,0,0,0-2.529.585,4.048,4.048,0,0,0-1.674,1.656,5.119,5.119,0,0,0-.585,2.493,5.133,5.133,0,0,0,.585,2.484,4.048,4.048,0,0,0,1.665,1.665,5.211,5.211,0,0,0,2.52.585A4.668,4.668,0,0,0,199.323-.855Zm2.9-6.264a5.158,5.158,0,0,0-.585,2.511,5,5,0,0,0,.6,2.493,4.055,4.055,0,0,0,1.728,1.647,5.8,5.8,0,0,0,2.673.576,4.981,4.981,0,0,0,2.106-.423,3.807,3.807,0,0,0,1.476-1.161,3.64,3.64,0,0,0,.7-1.656h-2.5a1.573,1.573,0,0,1-.675.981,2.318,2.318,0,0,1-1.287.333,2.031,2.031,0,0,1-1.53-.576,2.519,2.519,0,0,1-.648-1.584V-4.05H211a4.65,4.65,0,0,0,.072-.864,4.58,4.58,0,0,0-.621-2.349,4.091,4.091,0,0,0-1.674-1.548A5.352,5.352,0,0,0,206.3-9.36a4.939,4.939,0,0,0-2.439.585A4.106,4.106,0,0,0,202.221-7.119Zm6.309,1.413h-4.194a1.951,1.951,0,0,1,.675-1.287,2.093,2.093,0,0,1,1.4-.477,2.2,2.2,0,0,1,1.431.459A1.98,1.98,0,0,1,208.53-5.706ZM221.706-12.6h-2.538v4.5a3.344,3.344,0,0,0-2.79-1.26,4.222,4.222,0,0,0-2.205.585,4.008,4.008,0,0,0-1.53,1.656,5.352,5.352,0,0,0-.549,2.475,5.449,5.449,0,0,0,.549,2.5,4.015,4.015,0,0,0,1.521,1.665,4.175,4.175,0,0,0,2.2.585,3.436,3.436,0,0,0,2.88-1.386L219.492,0h2.214Zm-3.114,9.909a2.03,2.03,0,0,1-1.638.729,2.045,2.045,0,0,1-1.647-.738,2.89,2.89,0,0,1-.621-1.926,2.89,2.89,0,0,1,.621-1.926,2.045,2.045,0,0,1,1.647-.738,2.019,2.019,0,0,1,1.638.738,2.947,2.947,0,0,1,.612,1.944A2.882,2.882,0,0,1,218.592-2.691Z" transform="translate(235 3362)" fill="#fff"/>
      </g>
      <line id="Line_65" data-name="Line 65" y2="43" transform="translate(268 3373)" fill="none" stroke="#fff" stroke-width="1.5"/>
    </g>
    <g id="Group_66345" data-name="Group 66345" transform="translate(34 161)">
      <g id="Group_66342" data-name="Group 66342" transform="translate(645 -161)">
        <rect id="Rectangle_458-3" data-name="Rectangle 458" width="97" height="36" transform="translate(406 3459)" fill="#28a96b"/>
        <path id="Path_66896" data-name="Path 66896" d="M1.08,0H3.726V-7.938L9.072,0h2.466V-12.6H8.874v7.938L3.528-12.6H1.08ZM15.435-.477A5.41,5.41,0,0,0,18,.108a5.41,5.41,0,0,0,2.565-.585,4.136,4.136,0,0,0,1.71-1.656,5,5,0,0,0,.6-2.493,5.009,5.009,0,0,0-.6-2.484,4.121,4.121,0,0,0-1.71-1.665A5.41,5.41,0,0,0,18-9.36a5.41,5.41,0,0,0-2.565.585,4.121,4.121,0,0,0-1.71,1.665,5.009,5.009,0,0,0-.6,2.484,5.009,5.009,0,0,0,.6,2.484A4.121,4.121,0,0,0,15.435-.477ZM19.683-2.7A2.085,2.085,0,0,1,18-1.962,2.065,2.065,0,0,1,16.335-2.7a2.89,2.89,0,0,1-.621-1.926,2.89,2.89,0,0,1,.621-1.926A2.065,2.065,0,0,1,18-7.29a2.085,2.085,0,0,1,1.683.738A2.89,2.89,0,0,1,20.3-4.626,2.89,2.89,0,0,1,19.683-2.7Zm3.339-6.552L26.352,0H29.5l3.33-9.252H30.168l-2.2,6.66L25.74-9.252ZM42.588-5.958,37.818-2V0h9.234V-2.178h-5.49l2.826-2.3a9.868,9.868,0,0,0,1.971-2.025A3.9,3.9,0,0,0,47-8.748a3.684,3.684,0,0,0-1.215-2.9,4.99,4.99,0,0,0-3.429-1.08,5.107,5.107,0,0,0-2.412.549,3.944,3.944,0,0,0-1.611,1.521,4.208,4.208,0,0,0-.567,2.16v.342h2.61v-.2a2.268,2.268,0,0,1,.549-1.6,1.858,1.858,0,0,1,1.431-.594,2.108,2.108,0,0,1,1.467.5A1.8,1.8,0,0,1,44.37-8.64a2.262,2.262,0,0,1-.432,1.332A7.1,7.1,0,0,1,42.588-5.958Zm5.67-.63v.576a7.521,7.521,0,0,0,.657,3.267A4.944,4.944,0,0,0,50.742-.63a4.953,4.953,0,0,0,2.7.738A5,5,0,0,0,56.151-.63a4.922,4.922,0,0,0,1.836-2.115,7.521,7.521,0,0,0,.657-3.267v-.576a7.49,7.49,0,0,0-.657-3.24,4.973,4.973,0,0,0-1.836-2.133,4.953,4.953,0,0,0-2.709-.747,4.92,4.92,0,0,0-2.691.747,4.973,4.973,0,0,0-1.836,2.133A7.49,7.49,0,0,0,48.258-6.588Zm7.083-2.871A5.256,5.256,0,0,1,56.052-6.5v.4a5.256,5.256,0,0,1-.711,2.961,2.189,2.189,0,0,1-1.9,1.053,2.174,2.174,0,0,1-1.881-1.053A5.256,5.256,0,0,1,50.85-6.1v-.4a5.256,5.256,0,0,1,.711-2.961,2.174,2.174,0,0,1,1.881-1.053A2.189,2.189,0,0,1,55.341-9.459Zm9.243,3.5L59.814-2V0h9.234V-2.178h-5.49l2.826-2.3a9.868,9.868,0,0,0,1.971-2.025,3.9,3.9,0,0,0,.639-2.241,3.684,3.684,0,0,0-1.215-2.9,4.99,4.99,0,0,0-3.429-1.08,5.107,5.107,0,0,0-2.412.549,3.944,3.944,0,0,0-1.611,1.521A4.208,4.208,0,0,0,59.76-8.5v.342h2.61v-.2a2.268,2.268,0,0,1,.549-1.6,1.858,1.858,0,0,1,1.431-.594,2.108,2.108,0,0,1,1.467.5,1.8,1.8,0,0,1,.549,1.413,2.262,2.262,0,0,1-.432,1.332A7.1,7.1,0,0,1,64.584-5.958ZM69.75-12.6v2.2h6.39L70.632,0H73.44l5.544-10.926V-12.6Z" transform="translate(416 3484)" fill="#fff"/>
        <path id="Path_66895" data-name="Path 66895" d="M1.08,0h7.7V-2.322h-5V-12.6H1.08Zm8.9-7.119A5.158,5.158,0,0,0,9.4-4.608,5,5,0,0,0,10-2.115,4.055,4.055,0,0,0,11.727-.468,5.8,5.8,0,0,0,14.4.108a4.981,4.981,0,0,0,2.106-.423,3.807,3.807,0,0,0,1.476-1.161,3.64,3.64,0,0,0,.7-1.656h-2.5a1.573,1.573,0,0,1-.675.981,2.318,2.318,0,0,1-1.287.333,2.031,2.031,0,0,1-1.53-.576,2.519,2.519,0,0,1-.648-1.584V-4.05h6.714a4.65,4.65,0,0,0,.072-.864,4.58,4.58,0,0,0-.621-2.349,4.091,4.091,0,0,0-1.674-1.548,5.352,5.352,0,0,0-2.475-.549,4.939,4.939,0,0,0-2.439.585A4.106,4.106,0,0,0,9.981-7.119ZM16.29-5.706H12.1a1.951,1.951,0,0,1,.675-1.287,2.093,2.093,0,0,1,1.395-.477,2.2,2.2,0,0,1,1.431.459A1.979,1.979,0,0,1,16.29-5.706ZM29.322-2.142h-.288a.672.672,0,0,1-.45-.126.606.606,0,0,1-.144-.468V-5.994a3.027,3.027,0,0,0-1.071-2.5,4.718,4.718,0,0,0-3.033-.864,5.2,5.2,0,0,0-3.006.783,2.854,2.854,0,0,0-1.26,2.2h2.448a1.217,1.217,0,0,1,.54-.828,2.007,2.007,0,0,1,1.152-.306,1.98,1.98,0,0,1,1.26.369,1.2,1.2,0,0,1,.468,1v.45H24.1a5.28,5.28,0,0,0-3.159.8A2.658,2.658,0,0,0,19.854-2.61,2.365,2.365,0,0,0,20.8-.6a4.043,4.043,0,0,0,2.493.711,3.59,3.59,0,0,0,1.782-.414,3.5,3.5,0,0,0,1.242-1.206Q26.28,0,28.026,0h1.3ZM25.938-4v.18A2.1,2.1,0,0,1,25.344-2.3a2.135,2.135,0,0,1-1.566.567,1.582,1.582,0,0,1-1-.288.931.931,0,0,1-.369-.774,1.031,1.031,0,0,1,.441-.891A2.093,2.093,0,0,1,24.084-4Zm6.444.918H29.97A2.9,2.9,0,0,0,31.248-.747,5.3,5.3,0,0,0,34.38.108a5.987,5.987,0,0,0,2.187-.369,3.364,3.364,0,0,0,1.476-1.053A2.51,2.51,0,0,0,38.574-2.9a2.134,2.134,0,0,0-1-2.007,7.488,7.488,0,0,0-2.871-.8q-.882-.09-1.26-.162a1.592,1.592,0,0,1-.612-.234.552.552,0,0,1-.234-.486.816.816,0,0,1,.441-.72,2.2,2.2,0,0,1,1.161-.27,2.229,2.229,0,0,1,1.269.333,1.149,1.149,0,0,1,.549.855H38.43a2.743,2.743,0,0,0-1.251-2.2,5.412,5.412,0,0,0-3.051-.81,5.308,5.308,0,0,0-2.07.378,3.173,3.173,0,0,0-1.395,1.071,2.671,2.671,0,0,0-.495,1.593,2.071,2.071,0,0,0,.486,1.44,2.829,2.829,0,0,0,1.3.792,12.527,12.527,0,0,0,2.034.414q.9.108,1.3.189a1.377,1.377,0,0,1,.612.261.663.663,0,0,1,.216.54.817.817,0,0,1-.468.747,2.635,2.635,0,0,1-1.278.261,2.363,2.363,0,0,1-1.386-.378A1.307,1.307,0,0,1,32.382-3.078Zm7.875-4.041a5.158,5.158,0,0,0-.585,2.511,5,5,0,0,0,.6,2.493A4.055,4.055,0,0,0,42-.468a5.8,5.8,0,0,0,2.673.576,4.981,4.981,0,0,0,2.106-.423,3.807,3.807,0,0,0,1.476-1.161,3.64,3.64,0,0,0,.7-1.656h-2.5a1.573,1.573,0,0,1-.675.981,2.318,2.318,0,0,1-1.287.333,2.031,2.031,0,0,1-1.53-.576,2.519,2.519,0,0,1-.648-1.584V-4.05h6.714a4.65,4.65,0,0,0,.072-.864,4.58,4.58,0,0,0-.621-2.349,4.091,4.091,0,0,0-1.674-1.548,5.352,5.352,0,0,0-2.475-.549,4.939,4.939,0,0,0-2.439.585A4.106,4.106,0,0,0,40.257-7.119Zm6.309,1.413H42.372a1.951,1.951,0,0,1,.675-1.287,2.093,2.093,0,0,1,1.4-.477,2.2,2.2,0,0,1,1.431.459A1.979,1.979,0,0,1,46.566-5.706Zm8.829-3.969A7.268,7.268,0,0,0,54.648-6.3a7.268,7.268,0,0,0,.747,3.375A5.325,5.325,0,0,0,57.537-.684a6.543,6.543,0,0,0,3.285.792,5.912,5.912,0,0,0,2.646-.576,4.861,4.861,0,0,0,1.89-1.62A5.117,5.117,0,0,0,66.222-4.5h-2.7a2.942,2.942,0,0,1-.981,1.7,2.816,2.816,0,0,1-1.863.621,2.863,2.863,0,0,1-2.394-1.143A4.741,4.741,0,0,1,57.4-6.3a4.732,4.732,0,0,1,.882-2.988,2.872,2.872,0,0,1,2.394-1.134,2.816,2.816,0,0,1,1.863.621,2.942,2.942,0,0,1,.981,1.7h2.7a5.117,5.117,0,0,0-.864-2.412,4.861,4.861,0,0,0-1.89-1.62,5.912,5.912,0,0,0-2.646-.576,6.543,6.543,0,0,0-3.285.792A5.325,5.325,0,0,0,55.395-9.675Zm14.148,9.2a5.41,5.41,0,0,0,2.565.585,5.41,5.41,0,0,0,2.565-.585,4.136,4.136,0,0,0,1.71-1.656,5,5,0,0,0,.6-2.493,5.009,5.009,0,0,0-.6-2.484,4.121,4.121,0,0,0-1.71-1.665,5.41,5.41,0,0,0-2.565-.585,5.41,5.41,0,0,0-2.565.585,4.121,4.121,0,0,0-1.71,1.665,5.009,5.009,0,0,0-.6,2.484,5.009,5.009,0,0,0,.6,2.484A4.121,4.121,0,0,0,69.543-.477ZM73.791-2.7a2.085,2.085,0,0,1-1.683.738A2.065,2.065,0,0,1,70.443-2.7a2.89,2.89,0,0,1-.621-1.926,2.89,2.89,0,0,1,.621-1.926,2.065,2.065,0,0,1,1.665-.738,2.085,2.085,0,0,1,1.683.738,2.89,2.89,0,0,1,.621,1.926A2.89,2.89,0,0,1,73.791-2.7ZM91.944-8.37a3.192,3.192,0,0,0-2.43-.99,4.148,4.148,0,0,0-1.863.4,3.344,3.344,0,0,0-1.323,1.161A2.8,2.8,0,0,0,83.574-9.36a3.766,3.766,0,0,0-1.62.342,3.274,3.274,0,0,0-1.116.918L80.6-9.252H78.39V.018h2.538V-5.04a2.49,2.49,0,0,1,.5-1.629,1.624,1.624,0,0,1,1.323-.6q1.62,0,1.62,2.106V.018H86.9V-5.058a2.417,2.417,0,0,1,.5-1.629,1.672,1.672,0,0,1,1.332-.585q1.6,0,1.6,2.106V.018H92.88V-5.076A4.718,4.718,0,0,0,91.944-8.37Zm16.092,0a3.192,3.192,0,0,0-2.43-.99,4.148,4.148,0,0,0-1.863.4,3.344,3.344,0,0,0-1.323,1.161A2.8,2.8,0,0,0,99.666-9.36a3.766,3.766,0,0,0-1.62.342A3.274,3.274,0,0,0,96.93-8.1L96.7-9.252H94.482V.018H97.02V-5.04a2.49,2.49,0,0,1,.5-1.629,1.624,1.624,0,0,1,1.323-.6q1.62,0,1.62,2.106V.018H103V-5.058a2.417,2.417,0,0,1,.5-1.629,1.672,1.672,0,0,1,1.332-.585q1.6,0,1.6,2.106V.018h2.538V-5.076A4.718,4.718,0,0,0,108.036-8.37ZM110.8-7.119a5.158,5.158,0,0,0-.585,2.511,5,5,0,0,0,.6,2.493,4.055,4.055,0,0,0,1.728,1.647,5.8,5.8,0,0,0,2.673.576,4.981,4.981,0,0,0,2.106-.423A3.807,3.807,0,0,0,118.8-1.476a3.64,3.64,0,0,0,.7-1.656H117a1.573,1.573,0,0,1-.675.981,2.318,2.318,0,0,1-1.287.333,2.031,2.031,0,0,1-1.53-.576,2.519,2.519,0,0,1-.648-1.584V-4.05h6.714a4.651,4.651,0,0,0,.072-.864,4.58,4.58,0,0,0-.621-2.349,4.091,4.091,0,0,0-1.674-1.548,5.352,5.352,0,0,0-2.475-.549,4.939,4.939,0,0,0-2.439.585A4.106,4.106,0,0,0,110.8-7.119Zm6.309,1.413h-4.194a1.951,1.951,0,0,1,.675-1.287,2.093,2.093,0,0,1,1.395-.477,2.2,2.2,0,0,1,1.431.459A1.979,1.979,0,0,1,117.108-5.706Zm11.9-2.646a3.678,3.678,0,0,0-2.664-1.008,3.848,3.848,0,0,0-1.692.333,3.442,3.442,0,0,0-1.17.927l-.234-1.152h-2.214V0h2.538V-4.734a2.9,2.9,0,0,1,.54-1.872,1.857,1.857,0,0,1,1.53-.666q1.872,0,1.872,2.394V0h2.538V-5.022A4.483,4.483,0,0,0,129.006-8.352Zm2.871,1.233a5.158,5.158,0,0,0-.585,2.511,5,5,0,0,0,.6,2.493,4.055,4.055,0,0,0,1.728,1.647A5.8,5.8,0,0,0,136.3.108,4.981,4.981,0,0,0,138.4-.315a3.807,3.807,0,0,0,1.476-1.161,3.64,3.64,0,0,0,.7-1.656h-2.5a1.573,1.573,0,0,1-.675.981,2.318,2.318,0,0,1-1.287.333,2.031,2.031,0,0,1-1.53-.576,2.519,2.519,0,0,1-.648-1.584V-4.05h6.714a4.65,4.65,0,0,0,.072-.864,4.58,4.58,0,0,0-.621-2.349,4.091,4.091,0,0,0-1.674-1.548,5.352,5.352,0,0,0-2.475-.549,4.939,4.939,0,0,0-2.439.585A4.106,4.106,0,0,0,131.877-7.119Zm6.309,1.413h-4.194a1.951,1.951,0,0,1,.675-1.287,2.093,2.093,0,0,1,1.4-.477,2.2,2.2,0,0,1,1.431.459A1.98,1.98,0,0,1,138.186-5.706ZM155.664-8.37a3.192,3.192,0,0,0-2.43-.99,4.148,4.148,0,0,0-1.863.4,3.344,3.344,0,0,0-1.323,1.161,2.8,2.8,0,0,0-2.754-1.566,3.766,3.766,0,0,0-1.62.342,3.274,3.274,0,0,0-1.116.918l-.234-1.152H142.11V.018h2.538V-5.04a2.491,2.491,0,0,1,.495-1.629,1.624,1.624,0,0,1,1.323-.6q1.62,0,1.62,2.106V.018h2.538V-5.058a2.417,2.417,0,0,1,.5-1.629,1.672,1.672,0,0,1,1.332-.585q1.6,0,1.6,2.106V.018H156.6V-5.076A4.719,4.719,0,0,0,155.664-8.37Zm2.763,1.251a5.158,5.158,0,0,0-.585,2.511,5,5,0,0,0,.6,2.493,4.055,4.055,0,0,0,1.728,1.647,5.8,5.8,0,0,0,2.673.576,4.981,4.981,0,0,0,2.106-.423,3.807,3.807,0,0,0,1.476-1.161,3.64,3.64,0,0,0,.7-1.656h-2.5a1.573,1.573,0,0,1-.675.981,2.318,2.318,0,0,1-1.287.333,2.031,2.031,0,0,1-1.53-.576,2.519,2.519,0,0,1-.648-1.584V-4.05H167.2a4.651,4.651,0,0,0,.072-.864,4.58,4.58,0,0,0-.621-2.349,4.091,4.091,0,0,0-1.674-1.548A5.352,5.352,0,0,0,162.5-9.36a4.939,4.939,0,0,0-2.439.585A4.106,4.106,0,0,0,158.427-7.119Zm6.309,1.413h-4.194a1.951,1.951,0,0,1,.675-1.287,2.093,2.093,0,0,1,1.395-.477,2.2,2.2,0,0,1,1.431.459A1.979,1.979,0,0,1,164.736-5.706Zm11.9-2.646A3.678,3.678,0,0,0,173.97-9.36a3.848,3.848,0,0,0-1.692.333,3.443,3.443,0,0,0-1.17.927l-.234-1.152H168.66V0H171.2V-4.734a2.9,2.9,0,0,1,.54-1.872,1.857,1.857,0,0,1,1.53-.666q1.872,0,1.872,2.394V0h2.538V-5.022A4.483,4.483,0,0,0,176.634-8.352Zm3.24,1.242v4.464A2.339,2.339,0,0,0,182.52,0h2.106V-2.142h-1.314a.931.931,0,0,1-.693-.216.992.992,0,0,1-.207-.7V-7.11h2.106V-9.252h-2.106v-2.592h-2.538v2.592h-1.53V-7.11Z" transform="translate(416 3517)" fill="#fff"/>
      </g>
      <line id="Line_66" data-name="Line 66" y2="43" transform="translate(1063 3255)" fill="none" stroke="#fff" stroke-width="1.5"/>
    </g>
    <g id="Group_66350" data-name="Group 66350" transform="translate(44)">
      <line id="Line_64" data-name="Line 64" y2="43" transform="translate(172 3416)" fill="none" stroke="#fff" stroke-width="1.5"/>
      <g id="Group_66336" data-name="Group 66336">
        <rect id="Rectangle_15-2" data-name="Rectangle 15" width="96" height="36" transform="translate(154 3459)" fill="#28a96b"/>
        <path id="Path_66890" data-name="Path 66890" d="M6.066-12.6h-2.7v8.73a1.667,1.667,0,0,1-.342,1.161A1.489,1.489,0,0,1,1.89-2.34H.4V0H2.718A3.327,3.327,0,0,0,5.193-.882a3.354,3.354,0,0,0,.873-2.466ZM16.74-9.252H14.2V-4.7a3.308,3.308,0,0,1-.522,1.989A1.723,1.723,0,0,1,12.2-2a1.537,1.537,0,0,1-1.359-.639,3.351,3.351,0,0,1-.441-1.9V-9.252H7.866V-4.23A4.529,4.529,0,0,0,8.892-.891a3.634,3.634,0,0,0,2.646,1,3.516,3.516,0,0,0,1.584-.324,3.552,3.552,0,0,0,1.134-.9L14.49,0h2.25Zm9.738.9A3.678,3.678,0,0,0,23.814-9.36a3.848,3.848,0,0,0-1.692.333,3.442,3.442,0,0,0-1.17.927l-.234-1.152H18.5V0h2.538V-4.734a2.9,2.9,0,0,1,.54-1.872,1.857,1.857,0,0,1,1.53-.666q1.872,0,1.872,2.394V0h2.538V-5.022A4.483,4.483,0,0,0,26.478-8.352ZM38.034-5.958,33.264-2V0H42.5V-2.178h-5.49l2.826-2.3a9.868,9.868,0,0,0,1.971-2.025,3.9,3.9,0,0,0,.639-2.241,3.684,3.684,0,0,0-1.215-2.9,4.99,4.99,0,0,0-3.429-1.08,5.107,5.107,0,0,0-2.412.549,3.944,3.944,0,0,0-1.611,1.521A4.208,4.208,0,0,0,33.21-8.5v.342h2.61v-.2a2.268,2.268,0,0,1,.549-1.6,1.858,1.858,0,0,1,1.431-.594,2.108,2.108,0,0,1,1.467.5,1.8,1.8,0,0,1,.549,1.413,2.262,2.262,0,0,1-.432,1.332A7.1,7.1,0,0,1,38.034-5.958Zm5.67-.63v.576a7.521,7.521,0,0,0,.657,3.267A4.944,4.944,0,0,0,46.188-.63a4.953,4.953,0,0,0,2.7.738A5,5,0,0,0,51.6-.63a4.922,4.922,0,0,0,1.836-2.115,7.521,7.521,0,0,0,.657-3.267v-.576a7.49,7.49,0,0,0-.657-3.24A4.973,4.973,0,0,0,51.6-11.961a4.953,4.953,0,0,0-2.709-.747,4.92,4.92,0,0,0-2.691.747,4.973,4.973,0,0,0-1.836,2.133A7.49,7.49,0,0,0,43.7-6.588Zm7.083-2.871A5.256,5.256,0,0,1,51.5-6.5v.4a5.256,5.256,0,0,1-.711,2.961,2.189,2.189,0,0,1-1.9,1.053,2.174,2.174,0,0,1-1.881-1.053A5.256,5.256,0,0,1,46.3-6.1v-.4a5.256,5.256,0,0,1,.711-2.961,2.174,2.174,0,0,1,1.881-1.053A2.189,2.189,0,0,1,50.787-9.459Zm9.243,3.5L55.26-2V0h9.234V-2.178H59l2.826-2.3A9.868,9.868,0,0,0,63.8-6.507a3.9,3.9,0,0,0,.639-2.241,3.684,3.684,0,0,0-1.215-2.9,4.99,4.99,0,0,0-3.429-1.08,5.107,5.107,0,0,0-2.412.549,3.944,3.944,0,0,0-1.611,1.521,4.208,4.208,0,0,0-.567,2.16v.342h2.61v-.2a2.268,2.268,0,0,1,.549-1.6,1.858,1.858,0,0,1,1.431-.594,2.108,2.108,0,0,1,1.467.5,1.8,1.8,0,0,1,.549,1.413,2.262,2.262,0,0,1-.432,1.332A7.1,7.1,0,0,1,60.03-5.958ZM73.269-8.037a4.266,4.266,0,0,0-2.151-.549,3.643,3.643,0,0,0-2.61.972l.144-2.808h5.9V-12.6H66.294l-.36,7.38h2.5A1.691,1.691,0,0,1,69.3-6.237a2.855,2.855,0,0,1,1.26-.3,2.037,2.037,0,0,1,1.566.639,2.3,2.3,0,0,1,.594,1.629A2.144,2.144,0,0,1,72.081-2.6a2.176,2.176,0,0,1-1.521.585,2.154,2.154,0,0,1-1.521-.576A2.3,2.3,0,0,1,68.31-4.05H65.736a4.274,4.274,0,0,0,.648,2.115A4.142,4.142,0,0,0,68.058-.441a5.449,5.449,0,0,0,2.5.549,5.635,5.635,0,0,0,2.412-.5,4.055,4.055,0,0,0,1.719-1.485,4.276,4.276,0,0,0,.639-2.385,4.51,4.51,0,0,0-.549-2.241A3.943,3.943,0,0,0,73.269-8.037Z" transform="translate(164 3484)" fill="#fff"/>
        <path id="Path_66889" data-name="Path 66889" d="M1.08-12.6V0H5.454A6.788,6.788,0,0,0,8.793-.8a5.551,5.551,0,0,0,2.232-2.232A6.694,6.694,0,0,0,11.808-6.3a6.694,6.694,0,0,0-.783-3.267A5.551,5.551,0,0,0,8.793-11.8a6.788,6.788,0,0,0-3.339-.8ZM5.454-2.25H3.78v-8.1H5.454A3.3,3.3,0,0,1,8.109-9.243,4.379,4.379,0,0,1,9.054-6.3a4.379,4.379,0,0,1-.945,2.943A3.3,3.3,0,0,1,5.454-2.25Zm8.037-4.869a5.158,5.158,0,0,0-.585,2.511,5,5,0,0,0,.6,2.493A4.055,4.055,0,0,0,15.237-.468,5.8,5.8,0,0,0,17.91.108a4.981,4.981,0,0,0,2.106-.423,3.807,3.807,0,0,0,1.476-1.161,3.64,3.64,0,0,0,.7-1.656h-2.5a1.573,1.573,0,0,1-.675.981,2.318,2.318,0,0,1-1.287.333,2.031,2.031,0,0,1-1.53-.576,2.519,2.519,0,0,1-.648-1.584V-4.05h6.714a4.65,4.65,0,0,0,.072-.864,4.58,4.58,0,0,0-.621-2.349,4.091,4.091,0,0,0-1.674-1.548,5.352,5.352,0,0,0-2.475-.549,4.939,4.939,0,0,0-2.439.585A4.106,4.106,0,0,0,13.491-7.119ZM19.8-5.706H15.606a1.951,1.951,0,0,1,.675-1.287,2.093,2.093,0,0,1,1.395-.477,2.2,2.2,0,0,1,1.431.459A1.979,1.979,0,0,1,19.8-5.706Zm2.664-3.546L25.794,0h3.15l3.33-9.252H29.61l-2.2,6.66-2.232-6.66ZM32.985-7.119A5.158,5.158,0,0,0,32.4-4.608,5,5,0,0,0,33-2.115,4.055,4.055,0,0,0,34.731-.468,5.8,5.8,0,0,0,37.4.108,4.981,4.981,0,0,0,39.51-.315a3.807,3.807,0,0,0,1.476-1.161,3.64,3.64,0,0,0,.7-1.656h-2.5a1.573,1.573,0,0,1-.675.981,2.318,2.318,0,0,1-1.287.333,2.031,2.031,0,0,1-1.53-.576,2.519,2.519,0,0,1-.648-1.584V-4.05H41.76a4.651,4.651,0,0,0,.072-.864,4.58,4.58,0,0,0-.621-2.349,4.091,4.091,0,0,0-1.674-1.548,5.352,5.352,0,0,0-2.475-.549,4.939,4.939,0,0,0-2.439.585A4.106,4.106,0,0,0,32.985-7.119Zm6.309,1.413H35.1a1.951,1.951,0,0,1,.675-1.287A2.093,2.093,0,0,1,37.17-7.47a2.2,2.2,0,0,1,1.431.459A1.979,1.979,0,0,1,39.294-5.706ZM43.218-12.6V0h2.538V-12.6ZM49.473-.477a5.41,5.41,0,0,0,2.565.585A5.41,5.41,0,0,0,54.6-.477a4.136,4.136,0,0,0,1.71-1.656,5,5,0,0,0,.6-2.493,5.009,5.009,0,0,0-.6-2.484A4.121,4.121,0,0,0,54.6-8.775a5.41,5.41,0,0,0-2.565-.585,5.41,5.41,0,0,0-2.565.585,4.121,4.121,0,0,0-1.71,1.665,5.009,5.009,0,0,0-.6,2.484,5.009,5.009,0,0,0,.6,2.484A4.121,4.121,0,0,0,49.473-.477ZM53.721-2.7a2.085,2.085,0,0,1-1.683.738A2.065,2.065,0,0,1,50.373-2.7a2.89,2.89,0,0,1-.621-1.926,2.89,2.89,0,0,1,.621-1.926,2.065,2.065,0,0,1,1.665-.738,2.085,2.085,0,0,1,1.683.738,2.89,2.89,0,0,1,.621,1.926A2.89,2.89,0,0,1,53.721-2.7Zm12.15-6.075a4.162,4.162,0,0,0-2.205-.585,3.6,3.6,0,0,0-1.683.378,3.438,3.438,0,0,0-1.2,1.008l-.252-1.278H58.32V3.6h2.538V-1.17A3.356,3.356,0,0,0,63.648.108a4.209,4.209,0,0,0,2.214-.585,4.04,4.04,0,0,0,1.521-1.647,5.338,5.338,0,0,0,.549-2.484,5.449,5.449,0,0,0-.549-2.5A4.035,4.035,0,0,0,65.871-8.775ZM64.728-2.709a2.061,2.061,0,0,1-1.656.747A2.019,2.019,0,0,1,61.434-2.7a2.947,2.947,0,0,1-.612-1.944,2.882,2.882,0,0,1,.612-1.917,2.03,2.03,0,0,1,1.638-.729,2.083,2.083,0,0,1,1.656.729,2.828,2.828,0,0,1,.63,1.917A2.9,2.9,0,0,1,64.728-2.709ZM82.89-8.37a3.192,3.192,0,0,0-2.43-.99,4.148,4.148,0,0,0-1.863.4,3.344,3.344,0,0,0-1.323,1.161A2.8,2.8,0,0,0,74.52-9.36a3.766,3.766,0,0,0-1.62.342,3.274,3.274,0,0,0-1.116.918L71.55-9.252H69.336V.018h2.538V-5.04a2.49,2.49,0,0,1,.5-1.629,1.624,1.624,0,0,1,1.323-.6q1.62,0,1.62,2.106V.018H77.85V-5.058a2.417,2.417,0,0,1,.5-1.629,1.672,1.672,0,0,1,1.332-.585q1.6,0,1.6,2.106V.018h2.538V-5.076A4.718,4.718,0,0,0,82.89-8.37Zm2.763,1.251a5.158,5.158,0,0,0-.585,2.511,5,5,0,0,0,.6,2.493A4.055,4.055,0,0,0,87.4-.468a5.8,5.8,0,0,0,2.673.576,4.981,4.981,0,0,0,2.106-.423,3.807,3.807,0,0,0,1.476-1.161,3.64,3.64,0,0,0,.7-1.656h-2.5a1.573,1.573,0,0,1-.675.981,2.318,2.318,0,0,1-1.287.333,2.031,2.031,0,0,1-1.53-.576,2.519,2.519,0,0,1-.648-1.584V-4.05h6.714a4.65,4.65,0,0,0,.072-.864,4.58,4.58,0,0,0-.621-2.349A4.091,4.091,0,0,0,92.2-8.811,5.352,5.352,0,0,0,89.73-9.36a4.939,4.939,0,0,0-2.439.585A4.106,4.106,0,0,0,85.653-7.119Zm6.309,1.413H87.768a1.951,1.951,0,0,1,.675-1.287,2.093,2.093,0,0,1,1.395-.477,2.2,2.2,0,0,1,1.431.459A1.979,1.979,0,0,1,91.962-5.706Zm11.9-2.646A3.678,3.678,0,0,0,101.2-9.36a3.848,3.848,0,0,0-1.692.333,3.442,3.442,0,0,0-1.17.927L98.1-9.252H95.886V0h2.538V-4.734a2.9,2.9,0,0,1,.54-1.872,1.857,1.857,0,0,1,1.53-.666q1.872,0,1.872,2.394V0H104.9V-5.022A4.483,4.483,0,0,0,103.86-8.352ZM107.1-7.11v4.464A2.339,2.339,0,0,0,109.746,0h2.106V-2.142h-1.314a.931.931,0,0,1-.693-.216.992.992,0,0,1-.207-.7V-7.11h2.106V-9.252h-2.106v-2.592H107.1v2.592h-1.53V-7.11ZM116.568,0h2.79l.972-2.754h4.788L126.09,0h2.9l-4.572-12.6h-3.24Zm4.482-4.932,1.656-4.788,1.674,4.788Zm16.443-3.843a4.162,4.162,0,0,0-2.205-.585,3.6,3.6,0,0,0-1.683.378,3.438,3.438,0,0,0-1.2,1.008l-.252-1.278h-2.214V3.6h2.538V-1.17A3.356,3.356,0,0,0,135.27.108a4.209,4.209,0,0,0,2.214-.585,4.04,4.04,0,0,0,1.521-1.647,5.338,5.338,0,0,0,.549-2.484,5.449,5.449,0,0,0-.549-2.5A4.035,4.035,0,0,0,137.493-8.775ZM136.35-2.709a2.061,2.061,0,0,1-1.656.747,2.019,2.019,0,0,1-1.638-.738,2.947,2.947,0,0,1-.612-1.944,2.882,2.882,0,0,1,.612-1.917,2.03,2.03,0,0,1,1.638-.729,2.083,2.083,0,0,1,1.656.729,2.828,2.828,0,0,1,.63,1.917A2.9,2.9,0,0,1,136.35-2.709Zm12.159-6.066A4.162,4.162,0,0,0,146.3-9.36a3.6,3.6,0,0,0-1.683.378,3.438,3.438,0,0,0-1.2,1.008l-.252-1.278h-2.214V3.6H143.5V-1.17a3.356,3.356,0,0,0,2.79,1.278A4.209,4.209,0,0,0,148.5-.477a4.04,4.04,0,0,0,1.521-1.647,5.338,5.338,0,0,0,.549-2.484,5.449,5.449,0,0,0-.549-2.5A4.035,4.035,0,0,0,148.509-8.775Zm-1.143,6.066a2.061,2.061,0,0,1-1.656.747,2.019,2.019,0,0,1-1.638-.738,2.947,2.947,0,0,1-.612-1.944,2.882,2.882,0,0,1,.612-1.917,2.03,2.03,0,0,1,1.638-.729,2.083,2.083,0,0,1,1.656.729A2.828,2.828,0,0,1,148-4.644,2.9,2.9,0,0,1,147.366-2.709Zm10.242-6.543h-.432a3.286,3.286,0,0,0-1.638.351,2.875,2.875,0,0,0-1.026,1.035l-.234-1.386h-2.3V0h2.538V-4.536a2.8,2.8,0,0,1,.5-1.764,1.882,1.882,0,0,1,1.584-.648h1.008Zm2.781,8.775a5.41,5.41,0,0,0,2.565.585,5.41,5.41,0,0,0,2.565-.585,4.136,4.136,0,0,0,1.71-1.656,5,5,0,0,0,.6-2.493,5.009,5.009,0,0,0-.6-2.484,4.121,4.121,0,0,0-1.71-1.665,5.41,5.41,0,0,0-2.565-.585,5.41,5.41,0,0,0-2.565.585,4.121,4.121,0,0,0-1.71,1.665,5.009,5.009,0,0,0-.6,2.484,5.009,5.009,0,0,0,.6,2.484A4.121,4.121,0,0,0,160.389-.477ZM164.637-2.7a2.085,2.085,0,0,1-1.683.738,2.065,2.065,0,0,1-1.665-.738,2.89,2.89,0,0,1-.621-1.926,2.89,2.89,0,0,1,.621-1.926,2.065,2.065,0,0,1,1.665-.738,2.085,2.085,0,0,1,1.683.738,2.89,2.89,0,0,1,.621,1.926A2.89,2.89,0,0,1,164.637-2.7Zm3.339-6.552L171.306,0h3.15l3.33-9.252h-2.664l-2.2,6.66-2.232-6.66Zm19.35,7.11h-.288a.672.672,0,0,1-.45-.126.606.606,0,0,1-.144-.468V-5.994a3.027,3.027,0,0,0-1.071-2.5,4.718,4.718,0,0,0-3.033-.864,5.2,5.2,0,0,0-3.006.783,2.854,2.854,0,0,0-1.26,2.2h2.448a1.217,1.217,0,0,1,.54-.828,2.007,2.007,0,0,1,1.152-.306,1.98,1.98,0,0,1,1.26.369,1.2,1.2,0,0,1,.468,1v.45h-1.836a5.28,5.28,0,0,0-3.159.8,2.658,2.658,0,0,0-1.089,2.277A2.365,2.365,0,0,0,178.8-.6,4.043,4.043,0,0,0,181.3.108a3.59,3.59,0,0,0,1.782-.414,3.5,3.5,0,0,0,1.242-1.206Q184.284,0,186.03,0h1.3ZM183.942-4v.18a2.1,2.1,0,0,1-.594,1.521,2.135,2.135,0,0,1-1.566.567,1.582,1.582,0,0,1-1-.288.931.931,0,0,1-.369-.774,1.031,1.031,0,0,1,.441-.891A2.093,2.093,0,0,1,182.088-4Zm4.374-8.6V0h2.538V-12.6Z" transform="translate(164 3517)" fill="#fff"/>
      </g>
    </g>
  </g>
</svg>
