<svg xmlns="http://www.w3.org/2000/svg" width="72.613" height="73.609" viewBox="0 0 72.613 73.609">
  <g id="social" transform="translate(-66.64 -76.88)">
    <path id="Path_66812" data-name="Path 66812" d="M82.932,213.17a9.815,9.815,0,0,1-9.792,0,10.15,10.15,0,0,0-6.5,9.463v1.423a1.133,1.133,0,0,0,1.131,1.131H87.957v-2.571a13.63,13.63,0,0,1,.621-4.011,10.211,10.211,0,0,0-5.649-5.434Z" transform="translate(0 -97.266)" fill="#1a2c56"/>
    <path id="Path_66813" data-name="Path 66813" d="M124.251,144.956a9.839,9.839,0,0,1,7.367-9.512,10.157,10.157,0,0,0-5.844-5.91,9.866,9.866,0,0,1-4.879,1.294,9.973,9.973,0,0,1-4.9-1.309,10.106,10.106,0,0,0-5.729,5.664,9.823,9.823,0,0,1,6.714,15.719,13.5,13.5,0,0,1,4.633,4.109,14.022,14.022,0,0,1,4.633-4.126,9.819,9.819,0,0,1-2-5.927Z" transform="translate(-31.138 -37.568)" fill="#1a2c56"/>
    <circle id="Ellipse_8" data-name="Ellipse 8" cx="6.239" cy="6.239" r="6.239" transform="matrix(0.05, -0.999, 0.999, 0.05, 83.218, 89.343)" fill="#1a2c56"/>
    <path id="Path_66814" data-name="Path 66814" d="M258.71,167.879a6.23,6.23,0,1,0,6.239-6.239A6.233,6.233,0,0,0,258.71,167.879Z" transform="translate(-137.075 -60.491)" fill="#1a2c56"/>
    <path id="Path_66815" data-name="Path 66815" d="M223.949,90.408a6.239,6.239,0,1,0-6.239-6.239A6.248,6.248,0,0,0,223.949,90.408Z" transform="translate(-107.815 -0.749)" fill="#1a2c56"/>
    <path id="Path_66816" data-name="Path 66816" d="M90.889,174.1a6.23,6.23,0,1,0-6.239-6.222A6.233,6.233,0,0,0,90.889,174.1Z" transform="translate(-12.853 -60.491)" fill="#1a2c56"/>
    <path id="Path_66817" data-name="Path 66817" d="M214.671,144.949a9.841,9.841,0,0,1,8.727-9.775,10.149,10.149,0,0,0-5.729-5.664,9.782,9.782,0,0,1-9.775,0,10.266,10.266,0,0,0-5.844,5.927,9.813,9.813,0,0,1,5.369,15.439A14.022,14.022,0,0,1,212.051,155a13.623,13.623,0,0,1,4.633-4.109,9.784,9.784,0,0,1-2.013-5.944Z" transform="translate(-96.638 -37.56)" fill="#1a2c56"/>
    <path id="Path_66818" data-name="Path 66818" d="M259.052,213.17a9.782,9.782,0,0,1-9.775,0,10.206,10.206,0,0,0-5.666,5.434,13.543,13.543,0,0,1,.621,4.011v2.571H264.42a1.133,1.133,0,0,0,1.131-1.131v-1.423A10.151,10.151,0,0,0,259.052,213.17Z" transform="translate(-126.299 -97.266)" fill="#1a2c56"/>
    <path id="Path_66819" data-name="Path 66819" d="M171.68,167.879a6.239,6.239,0,1,0,6.239-6.239A6.233,6.233,0,0,0,171.68,167.879Z" transform="translate(-74.964 -60.491)" fill="#1a2c56"/>
    <path id="Path_66820" data-name="Path 66820" d="M169.962,213.17a9.815,9.815,0,0,1-9.792,0,10.144,10.144,0,0,0-6.5,9.446v2.571h2.145a14.7,14.7,0,0,1,18.5,0h2.127v-2.571A10.148,10.148,0,0,0,169.962,213.17Z" transform="translate(-62.111 -97.266)" fill="#1a2c56"/>
    <path id="Path_66821" data-name="Path 66821" d="M82.251,269.983a1.8,1.8,0,0,0-2.548,2.548L82.174,275h-13.2a1.8,1.8,0,0,0,0,3.6H82.176l-2.471,2.471a1.8,1.8,0,1,0,2.545,2.548l5.546-5.546a1.8,1.8,0,0,0,0-2.548Z" transform="translate(-0.378 -137.435)" fill="#1a2c56"/>
    <path id="Path_66822" data-name="Path 66822" d="M265.195,274.993h-13.2l2.471-2.471a1.8,1.8,0,0,0-2.548-2.548l-5.546,5.546a1.806,1.806,0,0,0,0,2.548l5.546,5.546a1.8,1.8,0,1,0,2.543-2.548l-2.471-2.471h13.205a1.8,1.8,0,0,0,0-3.6Z" transform="translate(-127.892 -137.428)" fill="#1a2c56"/>
    <path id="Path_66823" data-name="Path 66823" d="M165.734,256.26a11.124,11.124,0,1,0,11.124,11.124A11.124,11.124,0,0,0,165.734,256.26Zm5.449,9.684-5.755,5.758a1.714,1.714,0,0,1-2.428,0l-3.1-3.1a1.719,1.719,0,0,1,2.431-2.431l1.881,1.881,4.541-4.541a1.719,1.719,0,0,1,2.431,2.431Z" transform="translate(-62.782 -128.019)" fill="#2bb573"/>
  </g>
</svg>
