<svg id="Group_66072" data-name="Group 66072" xmlns="http://www.w3.org/2000/svg" xmlns:xlink="http://www.w3.org/1999/xlink" width="32.198" height="33.99" viewBox="0 0 32.198 33.99">
  <defs>
    <clipPath id="clip-path">
      <rect id="Rectangle_358" data-name="Rectangle 358" width="32.198" height="33.99" fill="#2bb573"/>
    </clipPath>
  </defs>
  <g id="Group_66071" data-name="Group 66071" clip-path="url(#clip-path)">
    <path id="Path_66756" data-name="Path 66756" d="M10.464,1.088V6.2a1.1,1.1,0,0,1-1.12,1.088H1.12A1.1,1.1,0,0,0,0,8.372V32.9A1.1,1.1,0,0,0,1.12,33.99H23.028a1.1,1.1,0,0,0,1.12-1.089V28.6a1.1,1.1,0,0,1,1.12-1.089h5.809a1.1,1.1,0,0,0,1.12-1.088V1.088A1.1,1.1,0,0,0,31.077,0H11.585a1.1,1.1,0,0,0-1.12,1.088" fill="#2bb573"/>
    <path id="Path_66757" data-name="Path 66757" d="M62.911,97.469a2.4,2.4,0,0,1,2.485,2.692V104.3h-1v-3.909c0-1.294-.647-2.019-1.734-2.019a1.874,1.874,0,0,0-1.851,2.071V104.3h-.984v-3.934c0-1.255-.66-1.993-1.721-1.993a1.939,1.939,0,0,0-1.864,2.109V104.3h-1V97.611h1v1.126a2.445,2.445,0,0,1,2.161-1.268A2.273,2.273,0,0,1,60.555,98.8a2.667,2.667,0,0,1,2.355-1.333" transform="translate(-46.633 -82.269)" fill="#fff"/>
    <path id="Path_66758" data-name="Path 66758" d="M129.9,80.737l-.438-.317a2.092,2.092,0,0,1,1.9-1.124A1.518,1.518,0,0,1,133,80.8c0,.777-.408,1.253-1.336,2.06l-1.411,1.252h2.8v.543h-3.69v-.46l1.917-1.69c.807-.724,1.1-1.132,1.1-1.66a1.009,1.009,0,0,0-1.064-1.011,1.7,1.7,0,0,0-1.419.905" transform="translate(-109.191 -66.93)" fill="#fff"/>
  </g>
</svg>
