<svg xmlns="http://www.w3.org/2000/svg" width="73.303" height="73.305" viewBox="0 0 73.303 73.305">
  <g id="sustainable" transform="translate(-70.668 -74.34)">
    <path id="Path_66799" data-name="Path 66799" d="M107.212,156.763A36.643,36.643,0,0,1,81.375,94.2l3.013-2.968H79.157a2.146,2.146,0,0,1,0-4.293l10.348.022A2.146,2.146,0,0,1,91.644,89.1V99.476a2.135,2.135,0,1,1-4.271,0V94.262L84.4,97.228a32.433,32.433,0,0,0,0,45.788,32.6,32.6,0,0,0,22.832,9.466h0a31.39,31.39,0,0,0,4.985-.395,2.464,2.464,0,0,1,.32-.022,2.194,2.194,0,0,1,2.13,1.813,2.146,2.146,0,0,1-1.779,2.442,36.192,36.192,0,0,1-5.678.45Z" transform="translate(0 -9.124)" fill="#1a2c56"/>
    <path id="Path_66800" data-name="Path 66800" d="M201.986,144.144A2.148,2.148,0,0,1,199.848,142V131.627a2.135,2.135,0,0,1,4.271,0v5.217l2.968-2.966a32.361,32.361,0,0,0-22.827-55.254,31.5,31.5,0,0,0-4.993.4,2.461,2.461,0,0,1-.32.022,2.194,2.194,0,0,1-2.13-1.813A2.15,2.15,0,0,1,178.6,74.79a36.22,36.22,0,0,1,5.678-.45A36.641,36.641,0,0,1,210.111,136.9l-3.013,2.974h5.231a2.145,2.145,0,0,1,.005,4.29l-10.354-.019Z" transform="translate(-76.848)" fill="#1a2c56"/>
    <path id="Path_66801" data-name="Path 66801" d="M163.3,177.921a.814.814,0,0,0-1.454-.461,15.9,15.9,0,0,1-1.308,1.528c-5.887,6.105-12.205,1.25-18.164,6.663a12.336,12.336,0,0,0-3.727,6.185,12.336,12.336,0,0,0-3.727-6.185c-5.959-5.41-12.277-.555-18.164-6.663a15.147,15.147,0,0,1-1.308-1.528.814.814,0,0,0-1.454.461c-.571,10.326,2.362,16.051,5.382,18.567,3.239,2.7,8.555,3.73,12.2,4.124.19-2.822-.226-5.7-1.515-7.487-1.639-2.282-4.869-3.735-7.247-4.555a.376.376,0,0,1,.154-.731c12.031.381,13.369,8.864,13.83,12.233a50.411,50.411,0,0,1,.447,6.842v1.647a1.406,1.406,0,0,0,1.407,1.407h0a1.406,1.406,0,0,0,1.407-1.407v-1.647a50.411,50.411,0,0,1,.447-6.842c.461-3.369,1.8-11.852,13.83-12.233a.376.376,0,0,1,.154.731c-2.375.819-5.609,2.273-7.247,4.555-1.288,1.79-1.7,4.665-1.515,7.487,3.642-.395,8.958-1.426,12.2-4.124,3.021-2.516,5.954-8.241,5.383-18.567Z" transform="translate(-31.32 -74.442)" fill="#2bb573"/>
    <path id="Path_66802" data-name="Path 66802" d="M187.7,128.011a9.743,9.743,0,1,0-9.741,9.744A9.742,9.742,0,0,0,187.7,128.011Zm-10.812,4.16a1.334,1.334,0,0,1-.979-.428l-2.773-2.98a1.339,1.339,0,1,1,1.962-1.824l1.793,1.928,3.934-4.224a1.338,1.338,0,1,1,1.959,1.824l-4.913,5.275a1.33,1.33,0,0,1-.979.428Z" transform="translate(-70.632 -31.81)" fill="#2bb573"/>
  </g>
</svg>
